<svg width="21" height="21" viewBox="0 0 21 21" fill="none" xmlns="http://www.w3.org/2000/svg">
<path d="M0 1.5C0 1.10218 0.138281 0.720645 0.384423 0.43934C0.630564 0.158036 0.964403 0 1.3125 0H19.6875C20.0356 0 20.3694 0.158036 20.6156 0.43934C20.8617 0.720645 21 1.10218 21 1.5C21 1.89782 20.8617 2.27936 20.6156 2.56066C20.3694 2.84196 20.0356 3 19.6875 3H1.3125C0.964403 3 0.630564 2.84196 0.384423 2.56066C0.138281 2.27936 0 1.89782 0 1.5Z" fill="#64629D"/>
<path d="M0 19.5C0 19.1022 0.138281 18.7206 0.384423 18.4393C0.630564 18.158 0.964403 18 1.3125 18H19.6875C20.0356 18 20.3694 18.158 20.6156 18.4393C20.8617 18.7206 21 19.1022 21 19.5C21 19.8978 20.8617 20.2794 20.6156 20.5607C20.3694 20.842 20.0356 21 19.6875 21H1.3125C0.964403 21 0.630564 20.842 0.384423 20.5607C0.138281 20.2794 0 19.8978 0 19.5Z" fill="#64629D"/>
<path d="M9.1875 9C8.8394 9 8.50556 9.15804 8.25942 9.43934C8.01328 9.72065 7.875 10.1022 7.875 10.5C7.875 10.8978 8.01328 11.2794 8.25942 11.5607C8.50556 11.842 8.8394 12 9.1875 12H19.6875C20.0356 12 20.3694 11.842 20.6156 11.5607C20.8617 11.2794 21 10.8978 21 10.5C21 10.1022 20.8617 9.72065 20.6156 9.43934C20.3694 9.15804 20.0356 9 19.6875 9H9.1875Z" fill="#64629D"/>
</svg>
