<svg width="199" height="148" viewBox="0 0 199 148" fill="none" xmlns="http://www.w3.org/2000/svg">
<path d="M178.988 136.654H165.811V136.753H178.988V136.654Z" fill="#EBEBEB"/>
<path d="M131.772 137.736H128.315V137.835H131.772V137.736Z" fill="#EBEBEB"/>
<path d="M165.413 132.962H157.778V133.061H165.413V132.962Z" fill="#EBEBEB"/>
<path d="M38.0525 133.63H20.8699V133.73H38.0525V133.63Z" fill="#EBEBEB"/>
<path d="M44.1159 133.63H41.5975V133.73H44.1159V133.63Z" fill="#EBEBEB"/>
<path d="M89.573 135.309H52.3035V135.408H89.573V135.309Z" fill="#EBEBEB"/>
<path d="M94.2877 112.509H17.469C16.8672 112.508 16.2905 112.268 15.8653 111.842C15.4401 111.416 15.2014 110.839 15.2014 110.237V2.25177C15.2066 1.65343 15.4477 1.08132 15.8723 0.659703C16.2969 0.23809 16.8707 0.00102499 17.469 0H94.2877C94.8902 0 95.468 0.239335 95.894 0.665353C96.32 1.09137 96.5593 1.66918 96.5593 2.27166V110.237C96.5593 110.84 96.32 111.417 95.894 111.843C95.468 112.269 94.8902 112.509 94.2877 112.509ZM17.469 0.079568C16.8936 0.0806219 16.3421 0.309942 15.9356 0.717194C15.5291 1.12445 15.3008 1.67635 15.3008 2.25177V110.237C15.3008 110.812 15.5291 111.364 15.9356 111.772C16.3421 112.179 16.8936 112.408 17.469 112.409H94.2877C94.8634 112.408 95.4153 112.179 95.8225 111.772C96.2296 111.365 96.4588 110.813 96.4599 110.237V2.25177C96.4588 1.67599 96.2296 1.12409 95.8225 0.716951C95.4153 0.309813 94.8634 0.0806197 94.2877 0.079568H17.469Z" fill="#EBEBEB"/>
<path d="M180.344 112.509H103.521C102.919 112.508 102.342 112.268 101.916 111.842C101.49 111.416 101.251 110.839 101.25 110.237V2.25177C101.256 1.65306 101.498 1.08096 101.923 0.659454C102.348 0.237951 102.923 0.00101381 103.521 0H180.344C180.942 0.00207055 181.514 0.239598 181.938 0.661099C182.362 1.0826 182.602 1.65411 182.608 2.25177V110.237C182.608 110.838 182.369 111.415 181.945 111.841C181.521 112.266 180.945 112.507 180.344 112.509ZM103.521 0.079568C102.946 0.0806197 102.394 0.309813 101.986 0.716951C101.579 1.12409 101.35 1.67599 101.349 2.25177V110.237C101.35 110.813 101.579 111.365 101.986 111.772C102.394 112.179 102.946 112.408 103.521 112.409H180.344C180.92 112.408 181.472 112.179 181.879 111.772C182.286 111.365 182.515 110.813 182.516 110.237V2.25177C182.515 1.67599 182.286 1.12409 181.879 0.716951C181.472 0.309813 180.92 0.0806197 180.344 0.079568H103.521Z" fill="#EBEBEB"/>
<path d="M198.919 130.252H0V130.352H198.919V130.252Z" fill="#EBEBEB"/>
<path d="M28.191 90.3096C26.0108 91.165 24.1728 92.7205 22.5735 94.4352C19.9358 97.2678 17.7477 101.198 18.9412 104.89C19.5062 106.637 21.38 108.26 23.0509 107.504C24.3439 106.919 24.7417 105.28 24.7815 103.864C24.8213 102.448 24.686 100.908 25.4777 99.7264C26.4723 98.2385 28.7201 97.9441 30.2836 98.8194C31.8471 99.6946 32.7542 101.461 32.9969 103.239C33.2697 105.29 32.7798 107.37 31.6203 109.084C30.6218 110.552 29.1458 111.717 28.4854 113.364C27.5942 115.576 28.378 118.071 29.1657 120.323C29.2018 120.47 29.2727 120.606 29.3726 120.72C29.4868 120.813 29.6245 120.872 29.7704 120.891C30.1622 120.945 30.5609 120.915 30.9401 120.802C31.3192 120.69 31.6701 120.498 31.9693 120.239C32.2686 119.981 32.5093 119.662 32.6755 119.303C32.8417 118.944 32.9295 118.554 32.9332 118.158C32.8855 117.227 32.3524 116.372 32.3126 115.441C32.237 113.595 33.9915 112.294 35.2725 110.965C38.7695 107.325 39.2986 101.795 39.1474 96.7506C39.1037 95.3462 39.0122 93.8941 38.3876 92.637C36.8241 89.4463 31.0713 89.1559 28.191 90.3096Z" fill="#EBEBEB"/>
<path d="M32.1812 122.65C31.364 122.928 30.6834 123.507 30.2771 124.269C29.8707 125.03 29.7692 125.918 29.993 126.752C30.2726 127.568 30.8333 128.259 31.5752 128.701C32.317 129.143 33.1917 129.306 34.043 129.162C34.5733 129.056 35.0739 128.835 35.5097 128.515C35.9454 128.195 36.3058 127.783 36.5653 127.309C36.9074 126.678 37.0463 125.958 36.963 125.246C36.8797 124.533 36.5782 123.864 36.0999 123.33C35.1172 122.324 32.1812 122.65 32.1812 122.65Z" fill="#E0E0E0"/>
<path d="M24.3199 26.1696L21.7101 25.3302L18.969 27.8207C18.8289 27.0676 18.8836 26.2912 19.1278 25.5652C19.372 24.8392 19.7976 24.1877 20.3644 23.6724C20.9311 23.1571 21.6201 22.7951 22.366 22.6208C23.1118 22.4466 23.8899 22.4658 24.6263 22.6766L29.7703 18.006L33.884 14.2703L39.028 9.60761C38.8895 8.85514 38.9454 8.07977 39.1903 7.35491C39.4352 6.63004 39.861 5.97968 40.4275 5.46539C40.994 4.95109 41.6823 4.58989 42.4274 4.41597C43.1725 4.24205 43.9497 4.26116 44.6853 4.47151L41.9442 6.96198L42.525 9.63944L45.1348 10.4749L47.8759 7.98841C48.0164 8.74138 47.9619 9.51775 47.7178 10.2437C47.4736 10.9697 47.0478 11.6212 46.4809 12.1363C45.914 12.6514 45.2248 13.0129 44.4788 13.1866C43.7328 13.3603 42.9548 13.3402 42.2187 13.1285L37.0746 17.7911L32.961 21.5308L27.8169 26.1975C27.9566 26.9502 27.9015 27.726 27.657 28.4515C27.4125 29.1769 26.9866 29.8278 26.4199 30.3423C25.8531 30.8569 25.1642 31.2181 24.4186 31.3916C23.673 31.565 22.8954 31.5451 22.1597 31.3336L24.9008 28.8471L24.3199 26.1696Z" fill="#E0E0E0"/>
<path opacity="0.4" d="M24.3199 26.1696L21.7101 25.3302L18.969 27.8207C18.8289 27.0676 18.8836 26.2912 19.1278 25.5652C19.372 24.8392 19.7976 24.1877 20.3644 23.6724C20.9311 23.1571 21.6201 22.7951 22.366 22.6208C23.1118 22.4466 23.8899 22.4658 24.6263 22.6766L29.7703 18.006L33.884 14.2703L39.028 9.60761C38.8895 8.85514 38.9454 8.07977 39.1903 7.35491C39.4352 6.63004 39.861 5.97968 40.4275 5.46539C40.994 4.95109 41.6823 4.58989 42.4274 4.41597C43.1725 4.24205 43.9497 4.26116 44.6853 4.47151L41.9442 6.96198L42.525 9.63944L45.1348 10.4749L47.8759 7.98841C48.0164 8.74138 47.9619 9.51775 47.7178 10.2437C47.4736 10.9697 47.0478 11.6212 46.4809 12.1363C45.914 12.6514 45.2248 13.0129 44.4788 13.1866C43.7328 13.3603 42.9548 13.3402 42.2187 13.1285L37.0746 17.7911L32.961 21.5308L27.8169 26.1975C27.9566 26.9502 27.9015 27.726 27.657 28.4515C27.4125 29.1769 26.9866 29.8278 26.4199 30.3423C25.8531 30.8569 25.1642 31.2181 24.4186 31.3916C23.673 31.565 22.8954 31.5451 22.1597 31.3336L24.9008 28.8471L24.3199 26.1696Z" fill="#E0E0E0"/>
<path d="M23.8704 10.5306L20.2103 5.93951L22.7366 3.64398L26.9577 7.71387L27.451 8.8119C27.6033 9.14915 27.8073 9.46056 28.0557 9.73489L33.1242 15.3046L30.8167 17.4012L25.7482 11.8315C25.5029 11.5587 25.2171 11.3252 24.9008 11.1393L23.8704 10.5306Z" fill="#E0E0E0"/>
<path opacity="0.7" d="M23.8704 10.5306L20.2103 5.93951L22.7366 3.64398L26.9577 7.71387L27.451 8.8119C27.6033 9.14915 27.8073 9.46056 28.0557 9.73489L33.1242 15.3046L30.8167 17.4012L25.7482 11.8315C25.5029 11.5587 25.2171 11.3252 24.9008 11.1393L23.8704 10.5306Z" fill="#F5F5F5"/>
<path d="M20.266 6.01112L20.2103 5.93951L22.7366 3.64398L22.8042 3.70763C22.9793 4.05773 22.6411 4.75793 21.9847 5.35469C21.3283 5.95144 20.6002 6.218 20.266 6.01112Z" fill="#E0E0E0"/>
<path d="M32.7503 20.3296L31.2266 18.6547L31.1271 18.7462C31.0105 18.8517 30.8568 18.9066 30.6997 18.8988C30.5427 18.8909 30.3952 18.821 30.2896 18.7044C30.1841 18.5879 30.1293 18.4341 30.1371 18.2771C30.1449 18.12 30.2148 17.9725 30.3314 17.867L33.6414 14.8633C33.758 14.7578 33.9118 14.7029 34.0688 14.7108C34.1466 14.7146 34.2228 14.7338 34.2932 14.7671C34.3635 14.8005 34.4266 14.8474 34.4789 14.9051C34.5311 14.9628 34.5715 15.0303 34.5977 15.1036C34.6238 15.1769 34.6353 15.2547 34.6314 15.3325C34.6276 15.4102 34.6084 15.4865 34.5751 15.5568C34.5417 15.6272 34.4948 15.6903 34.4371 15.7425L34.3376 15.834L35.8574 17.505C36.156 17.4675 36.4592 17.5075 36.7379 17.621C37.0166 17.7346 37.2614 17.9179 37.4487 18.1534L46.2131 27.8488C47.2594 29.0025 46.6468 30.2358 45.497 31.2662C44.3473 32.2966 43.0702 32.8019 42.0279 31.664L33.2436 21.9608C33.0299 21.753 32.8724 21.4943 32.7861 21.2089C32.6999 20.9236 32.6875 20.621 32.7503 20.3296Z" fill="#E0E0E0"/>
<path opacity="0.4" d="M32.7503 20.3296L31.2266 18.6547L31.1271 18.7462C31.0105 18.8517 30.8568 18.9066 30.6997 18.8988C30.5427 18.8909 30.3952 18.821 30.2896 18.7044C30.1841 18.5879 30.1293 18.4341 30.1371 18.2771C30.1449 18.12 30.2148 17.9725 30.3314 17.867L33.6414 14.8633C33.758 14.7578 33.9118 14.7029 34.0688 14.7108C34.1466 14.7146 34.2228 14.7338 34.2932 14.7671C34.3635 14.8005 34.4266 14.8474 34.4789 14.9051C34.5311 14.9628 34.5715 15.0303 34.5977 15.1036C34.6238 15.1769 34.6353 15.2547 34.6314 15.3325C34.6276 15.4102 34.6084 15.4865 34.5751 15.5568C34.5417 15.6272 34.4948 15.6903 34.4371 15.7425L34.3376 15.834L35.8574 17.505C36.156 17.4675 36.4592 17.5075 36.7379 17.621C37.0166 17.7346 37.2614 17.9179 37.4487 18.1534L46.2131 27.8488C47.2594 29.0025 46.6468 30.2358 45.497 31.2662C44.3473 32.2966 43.0702 32.8019 42.0279 31.664L33.2436 21.9608C33.0299 21.753 32.8724 21.4943 32.7861 21.2089C32.6999 20.9236 32.6875 20.621 32.7503 20.3296Z" fill="#EBEBEB"/>
<path opacity="0.7" d="M157.616 29.4479L161.75 31.4689L163.631 30.53L157.202 27.3831L157.616 29.4479Z" fill="#F5F5F5"/>
<path d="M160.261 7.95661C159.685 9.14385 159.366 10.4393 159.325 11.7583C159.284 13.0774 159.521 14.3902 160.022 15.611C160.366 16.4133 160.534 17.2795 160.517 18.152C160.5 19.0245 160.298 19.8834 159.923 20.6715L159.609 21.312L166.961 24.8926L167.275 24.2521C167.667 23.4731 168.22 22.7865 168.898 22.2377C169.575 21.689 170.362 21.2907 171.206 21.0694C173.078 20.5477 174.741 19.4574 175.967 17.9493C177.193 16.4412 177.92 14.5896 178.048 12.6504C178.176 10.7113 177.698 8.7802 176.682 7.12408C175.665 5.46797 174.159 4.16854 172.371 3.40534C170.152 2.48141 167.665 2.43777 165.415 3.28332C163.165 4.12886 161.322 5.80002 160.261 7.95661Z" fill="#F5F5F5"/>
<path d="M170.532 15.7904L164.525 23.5875L164.973 23.9323L170.98 16.1352L170.532 15.7904Z" fill="#E0E0E0"/>
<path d="M163.84 12.3062L161.379 21.8535L161.927 21.9947L164.388 12.4474L163.84 12.3062Z" fill="#E0E0E0"/>
<path d="M164.678 17.664L166.603 16.3193L166.722 18.6626L169.714 17.3975L169.491 16.8763L167.244 17.8271L167.116 15.269L165.016 16.7371L164.387 14.3779L163.842 14.5251L164.678 17.664Z" fill="#E0E0E0"/>
<path d="M159.628 21.2565L156.76 27.1206L164.092 30.7569L166.96 24.8927L159.628 21.2565Z" fill="#E0E0E0"/>
<path d="M163.07 123.171C161.828 116.225 161.224 109.18 161.264 102.125C161.264 98.5642 161.753 92.0118 166.328 91.1724C170.78 90.3568 170.597 96.0857 170.489 99.0217C170.334 103.279 162.907 122.275 163.07 123.171Z" fill="#EBEBEB"/>
<path d="M164.156 126.139C164.747 126.669 165.114 127.405 165.183 128.196C165.252 128.988 165.017 129.776 164.526 130.4C163.994 130.991 163.269 131.373 162.481 131.478C161.693 131.583 160.893 131.404 160.225 130.973C159.815 130.693 159.47 130.327 159.217 129.901C158.963 129.474 158.806 128.996 158.757 128.502C158.7 127.848 158.845 127.193 159.172 126.623C159.5 126.054 159.993 125.599 160.587 125.32C161.789 124.802 164.156 126.139 164.156 126.139Z" fill="#E0E0E0"/>
<path d="M99.4594 148C142.061 148 176.596 145.984 176.596 143.496C176.596 141.009 142.061 138.993 99.4594 138.993C56.8579 138.993 22.3225 141.009 22.3225 143.496C22.3225 145.984 56.8579 148 99.4594 148Z" fill="#F5F5F5"/>
<path d="M98.2664 15.7859L152.651 5.04425C152.994 4.97286 153.349 4.97371 153.692 5.04675C154.034 5.11978 154.358 5.2634 154.643 5.46847C154.927 5.67354 155.166 5.93557 155.343 6.23787C155.521 6.54018 155.634 6.87615 155.675 7.22441L165.366 101.317C165.397 101.663 165.356 102.012 165.246 102.341C165.135 102.67 164.957 102.973 164.724 103.229C164.49 103.486 164.205 103.691 163.887 103.832C163.57 103.973 163.227 104.046 162.879 104.046L98.2664 104.934V15.7859Z" fill="#64629D"/>
<path d="M98.0714 16.0449C98.0714 16.0449 134.895 7.746 150.916 8.70877L158.682 99.6069C158.682 99.6069 146.492 96.4242 134.812 98.6521C122.801 100.94 98.0674 104.934 98.0674 104.934L98.0714 16.0449Z" fill="#64629D"/>
<path opacity="0.7" d="M98.0714 16.0449C98.0714 16.0449 134.895 7.746 150.916 8.70877L158.682 99.6069C158.682 99.6069 146.492 96.4242 134.812 98.6521C122.801 100.94 98.0674 104.934 98.0674 104.934L98.0714 16.0449Z" fill="white"/>
<path d="M102.929 14.0633C102.929 14.0633 122.953 5.76837 135.632 5.04828L148.394 4.32422L155.655 96.4636C155.655 96.4636 143.764 91.6339 131.57 94.6256C119.376 97.6173 103.697 102.817 98.3384 104.747V15.7541L102.929 14.0633Z" fill="#64629D"/>
<path opacity="0.8" d="M102.997 14.0633C102.997 14.0633 123.025 5.76837 135.704 5.04828L148.47 4.32422L155.731 96.4636C155.731 96.4636 143.835 91.6339 131.646 94.6256C119.456 97.6173 103.773 102.817 98.4142 104.747V15.7541L102.997 14.0633Z" fill="white"/>
<path d="M98.3422 15.7862L45.1632 5.04452C44.8238 4.97614 44.4739 4.97949 44.1359 5.05436C43.7979 5.12924 43.4793 5.27398 43.2005 5.47929C42.9218 5.68459 42.6891 5.94594 42.5173 6.24652C42.3456 6.54711 42.2386 6.88029 42.2032 7.22468L32.7307 101.325C32.6965 101.667 32.7337 102.012 32.8398 102.339C32.9459 102.666 33.1186 102.967 33.3471 103.224C33.5756 103.48 33.8548 103.686 34.1671 103.829C34.4794 103.972 34.818 104.049 35.1615 104.055L98.3462 104.934L98.3422 15.7862Z" fill="#64629D"/>
<path d="M98.3422 15.7861C98.3422 15.7861 64.0525 3.23829 48.139 2.29541L40.0708 99.185C40.0708 99.185 52.4754 95.8869 64.0207 98.3416C75.5659 100.796 98.3462 104.934 98.3462 104.934L98.3422 15.7861Z" fill="#64629D"/>
<path opacity="0.6" d="M98.3422 15.7861C98.3422 15.7861 64.0525 3.23829 48.139 2.29541L40.0708 99.185C40.0708 99.185 52.4754 95.8869 64.0207 98.3416C75.5659 100.796 98.3462 104.934 98.3462 104.934L98.3422 15.7861Z" fill="white"/>
<path d="M94.4667 13.6935C94.4667 13.6935 75.458 3.68389 63.483 1.89362L51.4723 0.0993652L44.6732 90.9975C44.6732 90.9975 55.8326 87.3533 67.3182 91.5226C78.8038 95.692 93.7347 102.463 98.8389 104.934V15.7861L94.4667 13.6935Z" fill="#64629D"/>
<path opacity="0.7" d="M94.4667 13.6935C94.4667 13.6935 75.458 3.68389 63.483 1.89362L51.4723 0.0993652L44.6732 90.9975C44.6732 90.9975 55.8326 87.3533 67.3182 91.5226C78.8038 95.692 93.7347 102.463 98.8389 104.934V15.7861L94.4667 13.6935Z" fill="white"/>
<path d="M107.544 42.5685V42.29C107.544 39.5927 107.477 36.8516 107.405 34.202C107.341 31.8428 107.274 29.4041 107.266 27.0051V26.8658L107.397 26.8181C112.496 24.9258 117.7 23.3317 122.984 22.044L123.219 21.9883V22.231C123.362 25.1313 123.458 28.0793 123.545 30.9318C123.613 33.0522 123.681 35.2483 123.772 37.4046V37.5637L123.617 37.6035C117.812 39.0676 112.362 40.8936 107.799 42.489L107.544 42.5685ZM107.664 27.1443C107.664 29.4956 107.739 31.8786 107.803 34.1901C107.87 36.7521 107.942 39.3978 107.942 42.0076C112.422 40.448 117.725 38.6777 123.374 37.2335C123.287 35.1289 123.223 32.9886 123.155 30.9198C123.068 28.1349 122.98 25.2864 122.841 22.4658C117.696 23.7362 112.629 25.3009 107.664 27.1523V27.1443Z" fill="#64629D"/>
<path d="M116.567 30.311C116.327 30.3897 116.116 30.5402 115.964 30.7422C115.812 30.9443 115.725 31.1881 115.716 31.4409C115.716 31.8864 115.74 32.1132 115.752 32.5628C116.038 32.4186 116.288 32.212 116.484 31.958C116.554 31.8372 116.591 31.6999 116.591 31.5602C116.596 31.4969 116.622 31.4372 116.666 31.3909C116.709 31.3446 116.767 31.3145 116.83 31.3056L117.749 31.1823C117.795 31.1687 117.843 31.166 117.89 31.1744C117.938 31.1828 117.982 31.202 118.021 31.2305C118.059 31.259 118.091 31.2961 118.113 31.3388C118.134 31.3815 118.146 31.4287 118.147 31.4767C118.147 31.7392 118.147 31.8745 118.147 32.1331C118.134 32.2689 118.079 32.3974 117.989 32.4997C117.899 32.602 117.779 32.6729 117.645 32.702C116.818 32.881 116.452 32.9606 115.716 33.1237C115.703 33.3698 115.787 33.6111 115.951 33.7951C116.115 33.9791 116.345 34.091 116.591 34.1064C117.602 34.182 118.182 34.2098 119.336 34.2814C121.011 34.0865 121.922 33.9791 123.446 33.9273C123.41 32.8134 123.394 32.2684 123.362 31.1942C122.487 29.6267 122.018 28.9186 121.071 27.4784C120.945 27.2622 120.769 27.0802 120.556 26.9484C120.344 26.8166 120.103 26.739 119.853 26.7225C119.429 26.3256 118.871 26.1038 118.29 26.1019H118.234C117.687 25.9167 117.099 25.8864 116.535 26.0143C116.476 26.0308 116.422 26.062 116.378 26.1052C116.334 26.1483 116.302 26.202 116.285 26.261C116.253 26.3255 116.235 26.396 116.232 26.4679C116.229 26.5398 116.24 26.6115 116.267 26.6786C116.293 26.7456 116.333 26.8064 116.384 26.8571C116.435 26.9079 116.496 26.9474 116.563 26.9731C116.937 27.1084 117.649 27.916 118.123 28.461C118.415 28.7928 118.648 29.1723 118.811 29.5829C117.872 29.8853 117.407 30.0365 116.567 30.311Z" fill="#263238"/>
<path d="M114.141 30.5539C114.107 30.569 114.068 30.5705 114.033 30.5578C113.999 30.5452 113.97 30.5196 113.954 30.4863C113.811 30.0858 113.607 29.71 113.349 29.3723C113.327 29.3284 113.322 29.2779 113.334 29.2303C113.347 29.1828 113.376 29.1413 113.416 29.1137C113.451 29.0795 113.497 29.0602 113.546 29.0602C113.594 29.0602 113.641 29.0795 113.675 29.1137C113.945 29.4771 114.159 29.8796 114.308 30.3073C114.318 30.3557 114.312 30.4064 114.289 30.4506C114.267 30.4949 114.23 30.5299 114.184 30.5499L114.141 30.5539Z" fill="#263238"/>
<path d="M114.179 32.9804C114.122 33.341 113.927 33.665 113.634 33.8835C113.121 34.2814 112.441 34.3211 112.17 33.9432C112.138 33.8972 112.112 33.8479 112.091 33.796C112.035 33.5554 112.055 33.3033 112.148 33.0746C112.241 32.8458 112.403 32.6517 112.612 32.5189C112.876 32.2997 113.212 32.1876 113.555 32.2046C113.653 32.2093 113.749 32.2356 113.835 32.2817C113.922 32.3278 113.997 32.3925 114.056 32.4712C114.075 32.4962 114.093 32.5228 114.108 32.5508C114.171 32.6845 114.196 32.8333 114.179 32.9804Z" fill="white"/>
<path d="M114.18 32.9808C114.123 33.3414 113.928 33.6654 113.635 33.8839C113.122 34.2817 112.442 34.3215 112.171 33.9436C112.14 33.8976 112.113 33.8482 112.092 33.7964C112.121 33.6141 112.186 33.4393 112.283 33.2823C112.38 33.1252 112.507 32.9889 112.657 32.8813C113.182 32.4835 113.826 32.4557 114.101 32.8336C114.134 32.8791 114.16 32.9285 114.18 32.9808Z" fill="#263238"/>
<path d="M116.285 32.7619C116.235 33.1057 116.057 33.4181 115.787 33.6371C115.338 34.0071 114.737 34.0031 114.471 33.6172C114.44 33.5711 114.415 33.5218 114.395 33.47C114.347 33.2972 114.344 33.1152 114.385 32.9408C114.426 32.7663 114.51 32.6049 114.63 32.4714C114.79 32.2653 115.003 32.106 115.246 32.01C115.405 31.9281 115.587 31.9068 115.76 31.95C115.933 31.9932 116.084 32.098 116.185 32.2447C116.276 32.4008 116.311 32.5832 116.285 32.7619Z" fill="white"/>
<path d="M116.285 32.7618C116.235 33.1056 116.058 33.418 115.788 33.637C115.338 34.007 114.738 34.003 114.471 33.6171C114.44 33.5711 114.415 33.5217 114.395 33.4699C114.449 33.1153 114.639 32.7956 114.925 32.5788C115.41 32.1809 115.975 32.2128 116.218 32.6106C116.246 32.6583 116.268 32.709 116.285 32.7618Z" fill="#263238"/>
<path d="M115.477 31.0312C115.448 31.218 115.381 31.3969 115.28 31.5565C115.179 31.7161 115.045 31.8528 114.888 31.9581C114.379 32.3122 113.754 32.2804 113.516 31.8746C113.499 31.8453 113.484 31.8147 113.472 31.7831C113.414 31.5319 113.439 31.2686 113.543 31.0326C113.647 30.7967 113.824 30.6008 114.049 30.4742C114.582 30.1082 115.183 30.1599 115.401 30.5776C115.471 30.7181 115.497 30.8758 115.477 31.0312Z" fill="white"/>
<path d="M114.888 31.9504C114.379 32.3044 113.754 32.2726 113.515 31.8668C113.498 31.8375 113.484 31.8069 113.472 31.7753C113.503 31.583 113.575 31.3994 113.682 31.2364C113.789 31.0733 113.928 30.9344 114.092 30.8285C114.621 30.4664 115.218 30.5182 115.437 30.9319C115.452 30.9617 115.465 30.9922 115.477 31.0234C115.448 31.2103 115.381 31.3892 115.28 31.5487C115.178 31.7083 115.045 31.8451 114.888 31.9504Z" fill="#263238"/>
<path d="M113.727 30.3791C113.729 30.3936 113.729 30.4083 113.727 30.4228C113.659 31.0236 112.565 31.7715 111.224 32.1455C110.57 32.3279 109.872 32.2672 109.259 31.9744C109.105 31.9043 108.959 31.8162 108.825 31.7118C108.825 31.7118 109.939 30.2557 111.304 29.8937C111.489 29.8437 111.676 29.8039 111.865 29.7743C112.048 29.7476 112.233 29.7317 112.418 29.7266C113.21 29.7067 113.739 29.9494 113.727 30.3791Z" fill="#64629D"/>
<g opacity="0.2">
<path opacity="0.2" d="M111.22 32.1457C110.566 32.3281 109.868 32.2674 109.255 31.9746C109.862 31.2466 110.655 30.6967 111.55 30.3832C112.509 30.1246 113.333 30.1604 113.722 30.4111C113.655 31.0317 112.561 31.7717 111.22 32.1457Z" fill="black"/>
</g>
<path d="M117.924 26.0981C117.906 26.2992 117.872 26.4986 117.825 26.6948C117.657 27.4714 117.292 28.192 116.766 28.7875C115.82 29.802 114.829 30.3311 114.348 30.1202C114.312 30.108 114.28 30.0891 114.252 30.0645C113.958 29.8258 114.101 29.1933 114.566 28.4732C114.688 28.2733 114.82 28.0807 114.964 27.8963C115.08 27.7571 115.199 27.6138 115.33 27.4706C116.038 26.7642 116.942 26.2861 117.924 26.0981Z" fill="#64629D"/>
<g opacity="0.2">
<path opacity="0.2" d="M117.824 26.6951C117.656 27.4717 117.292 28.1922 116.766 28.7877C115.819 29.8022 114.828 30.3313 114.347 30.1205C114.371 29.6033 114.832 28.7758 115.572 27.9761C116.191 27.3497 116.97 26.9064 117.824 26.6951Z" fill="black"/>
</g>
<path d="M113.384 29.2572C113.229 29.655 112.449 29.9534 111.642 29.8977C111.389 29.8608 111.15 29.7605 110.947 29.606C110.744 29.4515 110.583 29.248 110.48 29.0145C110.48 29.0145 111.411 28.2904 112.215 28.366C113.018 28.4416 113.547 28.8434 113.384 29.2572Z" fill="#64629D"/>
<path d="M113.587 29.1373C113.953 29.2367 114.594 28.6838 115.032 27.8682C115.287 27.3265 115.341 26.7113 115.183 26.1336C114.581 26.4321 114.074 26.8922 113.719 27.4624C113.277 28.3018 113.217 29.0418 113.587 29.1373Z" fill="#64629D"/>
<path d="M118.836 34.9101C118.662 35.1263 118.477 35.3335 118.283 35.5307C117.714 36.1155 116.735 36.9629 115.895 37.1937C114.579 37.5517 113.134 37.4005 113.039 36.6486C113.037 36.6235 113.037 36.5982 113.039 36.573C113.039 35.7535 114.479 34.6316 115.907 34.2298C117.336 33.828 118.836 34.9101 118.836 34.9101Z" fill="#64629D"/>
<g opacity="0.2">
<path opacity="0.2" d="M118.28 35.531C117.711 36.1158 116.732 36.9632 115.893 37.194C114.576 37.552 113.132 37.4008 113.037 36.6489C113.726 35.8436 114.638 35.2608 115.658 34.974C116.736 34.6597 117.807 35.2247 118.28 35.531Z" fill="black"/>
</g>
<path d="M112.445 36.6327C112.425 36.6658 112.401 36.6965 112.374 36.7242C111.757 37.4522 110.241 37.5636 109.024 36.947C108.228 36.5491 107.954 35.658 107.83 35.0652C107.788 34.8621 107.763 34.6558 107.755 34.4486C107.755 34.4486 109.724 33.5733 111.053 34.1462C112.382 34.7191 113.014 35.8251 112.445 36.6327Z" fill="#64629D"/>
<g opacity="0.2">
<path opacity="0.2" d="M112.374 36.7241C111.757 37.4522 110.241 37.5636 109.024 36.9469C108.228 36.5491 107.954 35.6579 107.83 35.0651C108.427 34.8543 109.788 34.4724 110.77 34.902C111.753 35.3317 112.35 36.0398 112.374 36.7241Z" fill="black"/>
</g>
<path d="M107.755 40.7304C107.66 40.7583 107.584 40.6906 107.584 40.5792C107.583 40.5259 107.599 40.4736 107.629 40.4294C107.659 40.3853 107.701 40.3514 107.751 40.3326C110.982 39.342 114.168 35.292 114.224 32.1928C114.231 32.1426 114.252 32.0955 114.285 32.0573C114.319 32.0191 114.362 31.9915 114.411 31.978C114.511 31.9501 114.59 32.0058 114.586 32.0973C114.411 35.8887 111.308 39.3618 107.755 40.7304Z" fill="#263238"/>
<path d="M107.723 59.8748V59.6043C107.695 55.5822 107.643 51.4924 107.592 47.5379L107.552 44.4387L107.687 44.391C113.889 42.2347 118.827 40.7388 123.66 39.5373L123.891 39.4777V39.7203C124.182 45.0514 124.38 50.462 124.536 55.069V55.236L124.376 55.2718C118.827 56.5449 113.456 58.0249 107.962 59.7953L107.723 59.8748ZM107.954 44.7172L107.99 47.5339C108.037 51.4009 108.089 55.3952 108.117 59.3338C113.48 57.6111 118.731 56.1511 124.146 54.9218C123.995 50.4262 123.804 45.1707 123.521 39.9829C118.803 41.1605 113.981 42.6285 107.954 44.7172Z" fill="#64629D"/>
<path d="M109.573 59.222C110.794 57.8415 111.463 57.1015 112.867 55.546C115.163 54.8736 116.237 54.6628 118.381 54.1456C119.205 53.0873 119.642 52.4786 120.478 51.4442C120.57 51.3324 120.693 51.2506 120.832 51.2095C121.23 51.0902 121.504 51.4562 121.285 51.854C120.561 53.1629 120.183 53.9904 119.451 55.2516C117.717 55.8881 116.993 56.099 115.207 56.7912L114.069 57.6863C112.191 58.291 111.232 58.6491 109.573 59.222Z" fill="#263238"/>
<path d="M119.134 46.2766C119.344 49.0336 119.416 50.434 119.511 53.8355C116.918 54.5596 115.744 54.7824 113.035 55.6377C112.963 52.3795 113.07 50.7841 113.015 48.039C115.629 47.1359 116.567 46.945 119.134 46.2766Z" fill="#64629D"/>
<path d="M114.016 50.9747C114.017 51.169 114.052 51.3617 114.12 51.5437L113.054 51.8818C113.054 51.3805 113.054 51.1379 113.054 50.6565C113.479 50.5172 113.694 50.4456 114.12 50.3143C114.05 50.5275 114.015 50.7505 114.016 50.9747Z" fill="#263238"/>
<path d="M119.316 48.9105C119.344 49.3839 119.36 49.6266 119.384 50.104L118.386 50.3705C118.438 50.1681 118.46 49.9588 118.449 49.7499C118.438 49.5469 118.391 49.3475 118.31 49.1611L119.316 48.9105Z" fill="#263238"/>
<path opacity="0.2" d="M118.45 49.7659C118.46 49.9748 118.439 50.184 118.386 50.3865C118.271 50.8783 118.026 51.33 117.676 51.6941C117.325 52.0582 116.884 52.3211 116.397 52.4552C115.35 52.7258 114.408 52.3279 114.117 51.5442C114.047 51.3628 114.012 51.1698 114.014 50.9753C114.011 50.7512 114.045 50.5282 114.113 50.3149C114.28 49.8346 114.559 49.4007 114.926 49.0488C115.293 48.6968 115.739 48.4368 116.226 48.2899C116.621 48.1538 117.052 48.1691 117.437 48.333C117.821 48.4969 118.131 48.7977 118.306 49.1771C118.391 49.3626 118.439 49.5623 118.45 49.7659Z" fill="black"/>
<path d="M115.226 49.7293C115.262 49.6856 115.302 49.6458 115.342 49.606C115.351 49.6207 115.363 49.633 115.378 49.6418C115.699 49.8264 115.957 50.1038 116.118 50.4375L116.169 50.537C116.348 50.8955 116.6 51.2126 116.909 51.4679C116.689 51.5376 116.456 51.5577 116.227 51.5267C115.998 51.4958 115.778 51.4145 115.585 51.2889C114.976 50.9229 114.821 50.2266 115.226 49.7293Z" fill="white"/>
<path d="M117.363 51.166C117.331 51.2103 117.294 51.2504 117.252 51.2853C117.249 51.2701 117.244 51.2555 117.236 51.2425C117.227 51.2295 117.217 51.2183 117.204 51.2097C116.915 50.9768 116.685 50.6798 116.532 50.3424L116.484 50.243C116.316 49.8951 116.052 49.6025 115.724 49.3996C115.932 49.3194 116.157 49.2926 116.378 49.3218C116.599 49.351 116.809 49.4352 116.989 49.5666C117.12 49.6456 117.234 49.7501 117.324 49.8739C117.414 49.9977 117.479 50.1383 117.514 50.2873C117.549 50.4364 117.553 50.591 117.527 50.7419C117.501 50.8928 117.446 51.037 117.363 51.166Z" fill="white"/>
<path d="M119.09 46.2882C118.692 45.4925 118.513 45.0947 118.143 44.299C116.289 44.7884 115.653 44.9236 113.787 45.5602C113.488 46.5548 113.333 47.0401 113.015 48.0307C113.005 48.0526 112.997 48.0752 112.991 48.0984C115.609 47.2152 116.552 47.0282 119.114 46.3558C119.106 46.324 119.098 46.3121 119.09 46.2882Z" fill="#64629D"/>
<path d="M118.759 44.1243C116.372 44.7608 115.576 44.92 113.165 45.7594C113.165 45.5088 113.165 45.3616 113.165 45.1229C115.552 44.2874 116.324 44.1203 118.735 43.4798C118.731 43.7384 118.743 43.8657 118.759 44.1243Z" fill="#263238"/>
<path d="M126.199 37.1302V36.8915C126.135 35.6304 126.075 34.3653 126.012 33.1041C125.833 29.3684 125.646 25.5094 125.419 21.714V21.5469L125.582 21.5071C130.581 20.2959 135.693 19.6092 140.835 19.4583H141.03V19.6492C141.277 23.8663 141.623 28.1351 141.953 32.2607L142.192 35.2445H141.985C136.754 35.3205 131.546 35.935 126.441 37.0785L126.199 37.1302ZM125.801 21.8572C126.024 25.6009 126.199 29.4161 126.386 33.0842C126.445 34.2777 126.501 35.4712 126.561 36.6369C131.548 35.5321 136.634 34.9336 141.742 34.8506L141.539 32.2885C141.209 28.2226 140.871 24.0175 140.624 19.864C135.632 20.0217 130.669 20.6895 125.813 21.8572H125.801Z" fill="#64629D"/>
<path d="M131.776 31.974C131.629 32.2623 131.42 32.5147 131.164 32.7133C130.908 32.912 130.612 33.0521 130.296 33.1237C130.14 33.1445 129.98 33.1182 129.839 33.0482C129.274 32.7697 129.23 31.8228 129.727 30.9635C129.939 30.5866 130.244 30.2712 130.615 30.0485C130.765 29.9465 130.937 29.883 131.118 29.8635C131.298 29.8441 131.481 29.8694 131.649 29.9371C132.226 30.2354 132.281 31.1147 131.776 31.974Z" fill="#64629D"/>
<g opacity="0.2">
<path opacity="0.2" d="M131.777 31.974C131.629 32.2623 131.42 32.5147 131.164 32.7134C130.909 32.912 130.612 33.0521 130.297 33.1238C130.142 33.145 129.984 33.1201 129.843 33.0521C129.782 33.0221 129.726 32.9832 129.676 32.9368L129.652 32.9129C129.629 32.8896 129.607 32.8643 129.588 32.8373C129.546 32.7841 129.511 32.7252 129.485 32.6623L129.449 32.5747C129.437 32.544 129.429 32.5119 129.425 32.4793C129.415 32.4526 129.408 32.4244 129.405 32.3957C129.405 32.3559 129.405 32.3122 129.405 32.2684C129.394 32.0553 129.417 31.8417 129.473 31.6358C129.52 31.4648 129.583 31.2983 129.66 31.1385C129.686 31.0813 129.715 31.0255 129.748 30.9714C129.959 30.5945 130.265 30.2792 130.635 30.0564C130.785 29.9554 130.958 29.8925 131.138 29.8731C131.318 29.8537 131.501 29.8784 131.669 29.945C131.729 29.9732 131.784 30.0108 131.832 30.0564C131.93 30.1391 132.006 30.2442 132.055 30.3628C132.131 30.6352 132.145 30.921 132.097 31.1997C132.049 31.4783 131.939 31.7428 131.777 31.974Z" fill="black"/>
</g>
<path d="M131.534 30.9915C131.528 31.4122 131.412 31.824 131.196 32.185C130.979 32.572 130.67 32.8999 130.297 33.1399C130.142 33.1597 129.984 33.1348 129.843 33.0682C129.782 33.0382 129.726 32.9993 129.676 32.9529L129.652 32.929C129.629 32.9057 129.607 32.8804 129.588 32.8534C129.546 32.8002 129.511 32.7413 129.485 32.6784L129.449 32.5908C129.437 32.5601 129.429 32.528 129.425 32.4954C129.415 32.4687 129.408 32.4405 129.405 32.4118C129.405 32.372 129.405 32.3283 129.405 32.2845C129.394 32.0714 129.417 31.8578 129.473 31.6519C129.517 31.4799 129.58 31.3132 129.66 31.1546C129.686 31.0974 129.715 31.0416 129.748 30.9876C129.959 30.6106 130.265 30.2953 130.635 30.0725C130.791 30.0547 130.95 30.0809 131.092 30.1481C131.273 30.2336 131.415 30.3842 131.49 30.5698C131.53 30.7067 131.545 30.8495 131.534 30.9915Z" fill="#64629D"/>
<path d="M132.035 30.355C131.888 30.5825 131.721 30.7956 131.534 30.9916C131.353 31.1891 131.154 31.3701 130.941 31.5326C130.902 31.5666 130.86 31.5985 130.818 31.6281C130.397 31.9614 130.046 32.3736 129.783 32.8415C129.758 32.8833 129.72 32.9165 129.676 32.937L129.652 32.9131C129.629 32.8898 129.607 32.8645 129.588 32.8375C129.546 32.7843 129.511 32.7254 129.485 32.6625C129.77 32.1534 130.154 31.7069 130.615 31.3496L130.738 31.2502C131.002 31.045 131.242 30.8115 131.454 30.5539C131.571 30.4123 131.678 30.262 131.772 30.1044C131.784 30.0857 131.799 30.0695 131.816 30.0566C131.913 30.1364 131.988 30.239 132.035 30.355Z" fill="#263238"/>
<path d="M133.476 27.6139C133.393 27.6238 133.309 27.6238 133.225 27.6139H133.15C133.023 27.586 132.891 27.5423 132.752 27.5025C132.376 27.3589 132.043 27.1204 131.787 26.8101C131.53 26.4999 131.358 26.1285 131.288 25.7321C131.045 24.6858 131.403 23.6315 132.127 23.2257C132.242 23.1638 132.366 23.1196 132.493 23.0944C132.624 23.0581 132.761 23.0581 132.891 23.0944C133.002 23.1209 133.109 23.1653 133.206 23.2257C133.903 23.7229 134.381 24.4695 134.542 25.3104C134.829 26.5835 134.371 27.5741 133.476 27.6139Z" fill="#64629D"/>
<g opacity="0.2">
<path opacity="0.2" d="M133.476 27.6139C133.393 27.6238 133.309 27.6238 133.225 27.6139H133.15C133.023 27.586 132.891 27.5423 132.752 27.5025C132.376 27.3589 132.043 27.1204 131.787 26.8101C131.53 26.4999 131.358 26.1285 131.288 25.7321C131.045 24.6858 131.403 23.6315 132.127 23.2257C132.242 23.1638 132.366 23.1196 132.493 23.0944C132.624 23.0581 132.761 23.0581 132.891 23.0944C133.002 23.1209 133.109 23.1653 133.206 23.2257C133.903 23.7229 134.381 24.4695 134.542 25.3104C134.829 26.5835 134.371 27.5741 133.476 27.6139Z" fill="black"/>
</g>
<path d="M133.225 27.5979H133.15C133.022 27.5701 132.891 27.5263 132.752 27.4866C132.376 27.343 132.043 27.1045 131.787 26.7942C131.53 26.484 131.358 26.1126 131.288 25.7162C131.045 24.6699 131.387 23.6116 132.127 23.2098C132.401 23.2086 132.666 23.3013 132.879 23.4724C133.026 23.5968 133.16 23.7369 133.277 23.8901C133.608 24.3331 133.84 24.8418 133.957 25.382C134.216 26.4641 133.906 27.3513 133.225 27.5979Z" fill="#64629D"/>
<path d="M133.276 23.87C133.276 23.87 133.276 23.9018 133.276 23.9615C133.276 24.0211 133.276 24.0371 133.276 24.0888C133.276 24.1405 133.276 24.0888 133.276 24.0888C133.288 24.42 133.269 24.7516 133.22 25.0794C133.22 25.1231 133.22 25.1709 133.193 25.2186C133.165 25.2664 133.193 25.2465 133.193 25.2584C133.188 25.2945 133.181 25.3304 133.173 25.3658C133.173 25.4414 133.149 25.4772 133.129 25.5488C132.98 26.1807 132.98 26.8386 133.129 27.4704C133.137 27.5004 133.137 27.5319 133.129 27.5619C133.002 27.534 132.87 27.4903 132.731 27.4505C132.584 26.7826 132.592 26.0897 132.755 25.4255C132.775 25.3499 132.783 25.3141 132.799 25.2425C132.815 25.1709 132.823 25.1391 132.834 25.0873C132.834 25.0515 132.834 25.0078 132.858 24.968C132.882 24.9282 132.886 24.777 132.894 24.6895C132.914 24.4793 132.92 24.268 132.914 24.0569C132.914 24.0172 132.914 23.9973 132.914 23.9575C132.911 23.7952 132.899 23.6332 132.878 23.4721C132.878 23.4005 132.878 23.3249 132.846 23.2533C132.836 23.2232 132.834 23.191 132.84 23.1598C132.845 23.1285 132.858 23.0991 132.878 23.0743C132.989 23.1008 133.096 23.1451 133.193 23.2056C133.234 23.4251 133.262 23.647 133.276 23.87Z" fill="#263238"/>
<path d="M138.189 32.2524C138.054 32.4252 137.881 32.5654 137.684 32.6625C137.487 32.7596 137.271 32.8111 137.052 32.8133C136.434 32.8397 135.822 32.6788 135.297 32.3518C134.135 31.6676 133.571 30.486 134.052 29.8176C134.198 29.6248 134.404 29.4851 134.637 29.4198C135.447 29.2629 136.286 29.4316 136.972 29.8892C138.114 30.5655 138.655 31.5681 138.189 32.2524Z" fill="#64629D"/>
<g opacity="0.2">
<path opacity="0.2" d="M138.19 32.2528C138.131 32.3344 138.062 32.4091 137.987 32.4756C137.891 32.5517 137.785 32.6146 137.672 32.6625C137.476 32.75 137.266 32.8012 137.052 32.8137C136.434 32.8381 135.823 32.6774 135.297 32.3522C134.14 31.6719 133.567 30.4784 134.052 29.818C134.124 29.7168 134.216 29.6315 134.323 29.5674C134.416 29.5074 134.518 29.4617 134.625 29.4321C135.435 29.2752 136.274 29.4439 136.96 29.9015C138.11 30.5659 138.659 31.5685 138.19 32.2528Z" fill="black"/>
</g>
<path d="M137.617 32.3644C137.478 32.5675 137.281 32.7242 137.052 32.8139C136.434 32.8402 135.822 32.6794 135.297 32.3524C134.135 31.6681 133.571 30.4866 134.052 29.8182C134.198 29.6253 134.404 29.4856 134.637 29.4203C135.261 29.4486 135.868 29.6362 136.399 29.9654C137.537 30.6338 138.078 31.6602 137.617 32.3644Z" fill="#64629D"/>
<path d="M135.365 29.9695L135.245 29.87L135.337 29.9416C135.348 29.9488 135.358 29.9583 135.365 29.9695Z" fill="white"/>
<path d="M137.987 32.4752C137.891 32.5513 137.786 32.6142 137.673 32.6622C137.605 32.6224 137.534 32.5826 137.47 32.5388C136.937 32.1893 136.47 31.749 136.09 31.2379L135.97 31.0788L135.883 30.9753C135.648 30.6879 135.388 30.4216 135.107 30.1796L134.888 30.0125C134.741 29.8972 134.582 29.7937 134.419 29.6903C134.396 29.6774 134.375 29.6597 134.36 29.6385C134.344 29.6172 134.333 29.5928 134.327 29.567L134.629 29.4317C134.777 29.5192 134.916 29.6147 135.051 29.7142L135.123 29.7659C135.129 29.7676 135.136 29.7676 135.143 29.7659L135.25 29.8534L135.369 29.9529L135.588 30.1399C135.952 30.474 136.279 30.8461 136.563 31.2498C136.882 31.6256 137.255 31.9526 137.669 32.2206L137.912 32.3678C137.931 32.3796 137.947 32.3953 137.96 32.4137C137.973 32.4322 137.983 32.4531 137.987 32.4752Z" fill="#263238"/>
<path d="M126.66 54.7822V54.5395C126.517 51.2454 126.454 47.9036 126.39 44.6691C126.358 42.8391 126.32 41.0103 126.274 39.1829V39.0238L126.43 38.984C131.572 37.6723 136.866 37.0541 142.172 37.146H142.355V37.325C142.789 42.6441 143.095 48.0348 143.374 53.0993V53.3301L143.143 53.3062C136.917 52.6458 132.306 53.3579 126.887 54.7185L126.66 54.7822ZM126.66 39.3301C126.705 41.1071 126.743 42.8842 126.772 44.6612C126.835 47.8121 126.899 51.0703 127.03 54.2769C132.182 52.9959 136.897 52.2877 142.944 52.8925C142.673 47.9553 142.371 42.7197 141.953 37.5438C136.801 37.4743 131.662 38.0748 126.664 39.3301H126.66Z" fill="#64629D"/>
<path d="M137.768 48.6833C135.933 48.7139 134.103 48.8989 132.298 49.2363C131.809 46.8094 131.57 45.8865 131.104 44.0644C134.052 43.2965 135.481 43.2687 138.266 43.3124C138.083 45.23 137.975 46.1968 137.768 48.6833Z" fill="#64629D"/>
<g opacity="0.2">
<path opacity="0.2" d="M138.277 43.4593C137.537 43.4593 137.171 43.4593 136.411 43.4593C136.411 45.3132 136.411 46.276 136.391 48.7267C136.952 48.6948 137.223 48.6869 137.768 48.667C137.971 46.272 138.074 45.3212 138.277 43.4593Z" fill="black"/>
</g>
<path d="M139.845 41.6499C139.863 41.8812 139.829 42.1137 139.747 42.3308C139.666 42.548 139.537 42.7447 139.372 42.907C139.372 42.907 139.372 42.907 139.348 42.907C139.324 42.907 139.348 42.907 139.348 42.907C139.105 43.1343 138.805 43.2923 138.48 43.3645C138.414 43.3839 138.346 43.3972 138.278 43.4043H138.174H137.967C135.473 43.4043 134.168 43.3804 131.574 44.0409C131.432 44.0795 131.287 44.1035 131.14 44.1125C130.189 44.1682 129.41 43.647 129.378 42.7718C129.384 42.2365 129.585 41.7217 129.943 41.3236C130.311 40.8879 130.809 40.5801 131.363 40.4444C133.873 39.8556 135.25 39.8556 137.728 39.7959C138.251 39.7773 138.761 39.9587 139.154 40.3033C139.548 40.6478 139.795 41.1294 139.845 41.6499Z" fill="#64629D"/>
<g opacity="0.2">
<path opacity="0.2" d="M139.845 41.6496C139.863 41.881 139.829 42.1134 139.747 42.3305C139.666 42.5477 139.537 42.7444 139.372 42.9067C139.372 42.9067 139.372 42.9067 139.348 42.9067C139.084 43.1081 138.79 43.2665 138.476 43.3762C138.411 43.4013 138.343 43.4187 138.274 43.4279C138.262 43.4316 138.249 43.4316 138.238 43.4279C137.442 43.4279 137.044 43.4279 136.225 43.4279C136.477 43.429 136.727 43.3803 136.961 43.2847C137.216 43.1778 137.43 42.9908 137.57 42.7519C137.71 42.5129 137.768 42.235 137.736 41.9599C137.736 41.6734 137.709 41.5302 137.689 41.2438C137.646 40.8667 137.466 40.5184 137.184 40.2648C136.902 40.0111 136.537 39.8697 136.157 39.8672C136.794 39.8394 137.104 39.8314 137.721 39.8155C138.241 39.7944 138.751 39.9722 139.145 40.3128C139.54 40.6534 139.79 41.1313 139.845 41.6496Z" fill="black"/>
</g>
<path d="M135.787 44.7364C135.815 45.17 135.827 45.3888 135.855 45.8503C135.169 45.8343 134.483 45.8795 133.806 45.9856C133.774 45.5201 133.762 45.2973 133.734 44.8597C134.413 44.7501 135.1 44.7088 135.787 44.7364Z" fill="#64629D"/>
<path d="M135.787 44.7364C135.815 45.17 135.827 45.3888 135.855 45.8503C135.169 45.8343 134.483 45.8795 133.806 45.9856C133.774 45.5201 133.762 45.2973 133.734 44.8597C134.413 44.7501 135.1 44.7088 135.787 44.7364Z" fill="#64629D"/>
<g opacity="0.5">
<path opacity="0.5" d="M135.787 44.7364C135.815 45.17 135.827 45.3888 135.855 45.8503C135.169 45.8343 134.483 45.8795 133.806 45.9856C133.774 45.5201 133.762 45.2973 133.734 44.8597C134.413 44.7501 135.1 44.7088 135.787 44.7364Z" fill="white"/>
</g>
<path d="M134.928 44.7647C134.956 45.1983 134.968 45.4211 134.995 45.8866C134.595 45.8864 134.196 45.9197 133.802 45.986C133.77 45.5206 133.758 45.2978 133.73 44.8601C134.126 44.7913 134.527 44.7593 134.928 44.7647Z" fill="white"/>
<path d="M140.278 49.4271C140.293 49.6282 140.233 49.8277 140.111 49.9881C140.056 50.0573 139.986 50.1133 139.906 50.1519C139.826 50.1905 139.738 50.2106 139.65 50.2108C136.069 50.183 134.446 50.3143 130.368 51.1139C130.276 51.1395 130.178 51.1435 130.084 51.1256C129.99 51.1077 129.901 51.0685 129.824 51.0109C129.747 50.9532 129.685 50.8788 129.641 50.7932C129.597 50.7076 129.574 50.6132 129.573 50.5172C129.567 50.304 129.639 50.0961 129.775 49.9324C129.907 49.7655 130.093 49.65 130.301 49.6061C134.367 48.8303 135.974 48.6792 139.566 48.6473C139.763 48.6606 139.946 48.7491 140.079 48.8943C140.211 49.0396 140.283 49.2304 140.278 49.4271Z" fill="#64629D"/>
<path d="M135.64 41.6815C135.636 41.8101 135.606 41.9366 135.552 42.0533C135.498 42.17 135.421 42.2747 135.325 42.3609C135.23 42.4471 135.118 42.5131 134.996 42.5549C134.875 42.5968 134.746 42.6137 134.618 42.6045C134.512 42.6086 134.407 42.6006 134.303 42.5806C134.101 42.5651 133.911 42.4794 133.766 42.3384C133.621 42.1975 133.529 42.0101 133.508 41.8088C133.498 41.5993 133.562 41.3931 133.69 41.2265C133.817 41.0598 133.999 40.9434 134.204 40.8978C134.305 40.8703 134.409 40.853 134.514 40.846C134.773 40.8136 135.035 40.8824 135.245 41.038C135.454 41.1936 135.596 41.4241 135.64 41.6815Z" fill="#64629D"/>
<path d="M135.64 41.6815C135.636 41.8101 135.606 41.9366 135.552 42.0533C135.498 42.17 135.421 42.2747 135.325 42.3609C135.23 42.4471 135.118 42.5131 134.996 42.5549C134.875 42.5968 134.746 42.6137 134.618 42.6045C134.512 42.6086 134.407 42.6006 134.303 42.5806C134.101 42.5651 133.911 42.4794 133.766 42.3384C133.621 42.1975 133.529 42.0101 133.508 41.8088C133.498 41.5993 133.562 41.3931 133.69 41.2265C133.817 41.0598 133.999 40.9434 134.204 40.8978C134.305 40.8703 134.409 40.853 134.514 40.846C134.773 40.8136 135.035 40.8824 135.245 41.038C135.454 41.1936 135.596 41.4241 135.64 41.6815Z" fill="white"/>
<path d="M135.043 41.7011C135.04 41.9106 134.965 42.1126 134.83 42.2728C134.695 42.4331 134.509 42.5417 134.303 42.5803C134.101 42.5648 133.911 42.4791 133.766 42.3381C133.621 42.1972 133.529 42.0098 133.508 41.8085C133.498 41.599 133.562 41.3928 133.69 41.2261C133.817 41.0595 133.999 40.9431 134.204 40.8975C134.413 40.9184 134.61 41.0089 134.762 41.1546C134.914 41.3002 135.013 41.4926 135.043 41.7011Z" fill="white"/>
<path d="M136.356 43.4757C136.388 43.9531 136.404 44.1997 136.432 44.701C135.317 44.6618 134.202 44.7553 133.11 44.9795C133.078 44.4703 133.062 44.2276 133.03 43.7502C134.124 43.525 135.24 43.4328 136.356 43.4757Z" fill="#64629D"/>
<g opacity="0.5">
<path opacity="0.5" d="M136.356 43.4757C136.388 43.9531 136.404 44.1997 136.432 44.701C135.317 44.6618 134.202 44.7553 133.11 44.9795C133.078 44.4703 133.062 44.2276 133.03 43.7502C134.124 43.525 135.24 43.4328 136.356 43.4757Z" fill="white"/>
</g>
<path d="M135.326 43.5034C135.357 43.9768 135.373 44.2234 135.405 44.7287C134.633 44.7222 133.862 44.8063 133.11 44.9793C133.078 44.4701 133.062 44.2274 133.03 43.75C133.783 43.5784 134.553 43.4956 135.326 43.5034Z" fill="white"/>
<path d="M137.256 41.6413C137.256 41.7468 137.214 41.848 137.139 41.9226C137.064 41.9972 136.963 42.0391 136.858 42.0391C136.75 42.0462 136.644 42.0124 136.561 41.9445C136.478 41.8766 136.423 41.7796 136.408 41.6731C136.408 41.5676 136.45 41.4664 136.525 41.3918C136.599 41.3172 136.701 41.2753 136.806 41.2753C136.914 41.2673 137.02 41.3007 137.104 41.3688C137.187 41.4369 137.242 41.5344 137.256 41.6413Z" fill="#64629D"/>
<path d="M138.691 41.6378C138.696 41.6913 138.689 41.7452 138.671 41.7957C138.653 41.8462 138.624 41.892 138.586 41.93C138.548 41.968 138.502 41.9971 138.451 42.0154C138.401 42.0336 138.347 42.0406 138.293 42.0357C138.183 42.0372 138.076 41.9972 137.993 41.9235C137.911 41.8499 137.859 41.7479 137.848 41.6378C137.846 41.586 137.855 41.5343 137.875 41.4863C137.894 41.4382 137.924 41.3949 137.962 41.3591C137.999 41.3234 138.044 41.2961 138.093 41.2789C138.142 41.2618 138.194 41.2553 138.246 41.2599C138.354 41.2551 138.46 41.2914 138.543 41.3615C138.625 41.4316 138.678 41.5303 138.691 41.6378Z" fill="#64629D"/>
<path d="M131.46 42.2781C131.455 42.3915 131.413 42.5004 131.341 42.5885C131.27 42.6766 131.172 42.7393 131.062 42.7674C130.823 42.8271 130.616 42.7117 130.604 42.5009C130.612 42.3853 130.657 42.2754 130.732 42.1874C130.808 42.0993 130.909 42.0376 131.022 42.0115C131.245 41.9519 131.448 42.0712 131.46 42.2781Z" fill="#64629D"/>
<path d="M137.502 45.5882C136.858 45.5882 136.532 45.5882 135.859 45.62C135.859 45.4131 135.839 45.3137 135.827 45.1108C136.5 45.1108 136.826 45.0869 137.47 45.0829C137.482 45.2819 137.49 45.3853 137.502 45.5882Z" fill="#263238"/>
<path d="M136.368 43.6109C135.255 43.5669 134.141 43.6577 133.05 43.8814C133.031 43.8907 133.01 43.8948 132.988 43.8931C132.967 43.8915 132.947 43.8842 132.929 43.872C132.912 43.8599 132.898 43.8432 132.889 43.8239C132.88 43.8046 132.877 43.7832 132.879 43.7621C132.879 43.7224 132.892 43.684 132.917 43.6529C132.941 43.6218 132.976 43.6 133.014 43.591C134.107 43.3673 135.222 43.2765 136.336 43.3205C136.376 43.3192 136.414 43.3327 136.445 43.3585C136.475 43.3842 136.494 43.4203 136.499 43.4597C136.501 43.4783 136.499 43.4971 136.493 43.5148C136.487 43.5326 136.478 43.549 136.466 43.5631C136.453 43.5772 136.438 43.5887 136.422 43.5969C136.405 43.6051 136.387 43.6099 136.368 43.6109Z" fill="#263238"/>
<path d="M136.857 42.1708C136.711 42.1785 136.568 42.1319 136.455 42.04C136.342 41.9481 136.267 41.8176 136.244 41.6735C136.245 41.6034 136.259 41.534 136.287 41.4697C136.315 41.4053 136.356 41.3472 136.407 41.2989C136.457 41.2506 136.518 41.2131 136.583 41.1886C136.649 41.1641 136.719 41.1531 136.789 41.1564C136.935 41.146 137.079 41.1917 137.192 41.2841C137.305 41.3766 137.379 41.5088 137.398 41.6536C137.399 41.7238 137.385 41.7933 137.358 41.8579C137.33 41.9226 137.29 41.9809 137.239 42.0294C137.189 42.0778 137.129 42.1154 137.063 42.1397C136.997 42.1641 136.927 42.1746 136.857 42.1708ZM136.809 41.4189C136.776 41.4173 136.742 41.4225 136.711 41.4342C136.68 41.4458 136.651 41.4637 136.627 41.4868C136.603 41.5099 136.583 41.5376 136.57 41.5684C136.557 41.5991 136.55 41.6322 136.55 41.6656C136.56 41.7341 136.596 41.7964 136.65 41.8399C136.703 41.8835 136.772 41.905 136.841 41.9003C136.874 41.9025 136.907 41.8978 136.938 41.8866C136.969 41.8753 136.998 41.8577 137.022 41.8349C137.045 41.8121 137.064 41.7846 137.077 41.754C137.09 41.7235 137.096 41.6907 137.096 41.6576C137.089 41.5883 137.057 41.5239 137.006 41.4774C136.954 41.4309 136.887 41.4057 136.817 41.407L136.809 41.4189Z" fill="white"/>
<path d="M138.309 42.1707C138.163 42.1741 138.021 42.1237 137.909 42.0291C137.798 41.9345 137.725 41.8022 137.704 41.6575C137.703 41.5881 137.716 41.5191 137.743 41.455C137.77 41.3909 137.809 41.3329 137.859 41.2848C137.909 41.2366 137.969 41.1993 138.034 41.1751C138.099 41.1509 138.168 41.1404 138.238 41.1443C138.384 41.1391 138.527 41.1889 138.639 41.2838C138.751 41.3787 138.824 41.512 138.842 41.6575C138.845 41.7272 138.832 41.7967 138.806 41.8614C138.78 41.9261 138.74 41.9846 138.69 42.033C138.64 42.0814 138.58 42.1187 138.514 42.1424C138.449 42.1661 138.379 42.1758 138.309 42.1707ZM138.257 41.4108C138.224 41.4091 138.191 41.4144 138.161 41.4261C138.13 41.4379 138.101 41.4559 138.078 41.4791C138.054 41.5023 138.036 41.5301 138.024 41.5608C138.011 41.5915 138.006 41.6244 138.007 41.6575C138.016 41.7257 138.049 41.7882 138.102 41.833C138.154 41.8778 138.221 41.9017 138.289 41.9002C138.322 41.9024 138.355 41.8977 138.386 41.8864C138.418 41.8752 138.446 41.8576 138.47 41.8348C138.494 41.812 138.513 41.7844 138.526 41.7539C138.538 41.7234 138.545 41.6905 138.544 41.6575C138.543 41.5822 138.512 41.5104 138.459 41.4575C138.405 41.4046 138.333 41.375 138.257 41.375V41.4108Z" fill="white"/>
<path d="M131.052 42.9026C130.726 42.9862 130.444 42.8271 130.432 42.5406C130.442 42.3839 130.503 42.2347 130.604 42.1151C130.706 41.9955 130.844 41.9117 130.997 41.8762C131.323 41.7967 131.593 41.9598 131.609 42.2422C131.601 42.3979 131.542 42.5467 131.441 42.6659C131.341 42.7851 131.204 42.8682 131.052 42.9026ZM131.012 42.1468C130.94 42.1625 130.874 42.2018 130.826 42.2586C130.778 42.3154 130.749 42.3866 130.746 42.461C130.75 42.4935 130.761 42.5247 130.778 42.5521C130.796 42.5796 130.82 42.6025 130.848 42.6191C130.877 42.6357 130.908 42.6455 130.941 42.6478C130.973 42.65 131.006 42.6447 131.036 42.6321C131.109 42.6158 131.174 42.5763 131.222 42.5196C131.27 42.4629 131.299 42.3921 131.303 42.3178C131.287 42.1706 131.168 42.107 131.012 42.1468Z" fill="white"/>
<path d="M134.526 41.4347C134.487 41.4405 134.447 41.4308 134.415 41.4078C134.384 41.3848 134.362 41.3502 134.355 41.3114C134.355 41.1363 134.355 41.0528 134.327 40.8777C134.327 40.8061 134.391 40.7465 134.482 40.7425C134.522 40.7366 134.562 40.7461 134.595 40.7691C134.627 40.7921 134.65 40.8267 134.657 40.8658C134.657 41.0369 134.657 41.1244 134.685 41.2994C134.689 41.375 134.622 41.4307 134.526 41.4347Z" fill="#263238"/>
<path d="M136.173 46.5468H135.97C135.97 46.511 135.97 46.4911 135.97 46.4513C135.248 46.4434 134.527 46.4953 133.814 46.6064C133.845 47.0799 133.857 47.3265 133.889 47.8358C133.885 47.9745 133.91 48.1127 133.961 48.2416C134.013 48.3706 134.09 48.4876 134.188 48.5856C134.287 48.6836 134.404 48.7605 134.533 48.8115C134.662 48.8624 134.801 48.8865 134.939 48.8821H135.091C135.293 48.8578 135.483 48.7753 135.64 48.6446C135.796 48.514 135.91 48.3408 135.97 48.1461C136.017 48.1275 136.059 48.0957 136.089 48.0546L136.451 47.609C136.504 47.5412 136.53 47.456 136.523 47.3703C136.523 47.1634 136.523 47.06 136.495 46.8571C136.493 46.7734 136.458 46.6938 136.398 46.6357C136.337 46.5777 136.256 46.5457 136.173 46.5468ZM136.28 47.3743C136.286 47.3896 136.286 47.4067 136.28 47.422L136.049 47.7045V47.6687C136.029 47.3186 136.022 47.1475 136.002 46.8093H136.205C136.22 46.8102 136.236 46.8166 136.247 46.8275C136.259 46.8385 136.266 46.8531 136.268 46.869C136.264 47.0679 136.268 47.1714 136.28 47.3782V47.3743Z" fill="#263238"/>
<path d="M133.512 49.2643C134.511 49.1137 135.518 49.0141 136.527 48.9659C136.597 48.9523 136.663 48.9249 136.722 48.8853C136.78 48.8456 136.831 48.7946 136.869 48.7352C135.628 48.7783 134.391 48.9005 133.165 49.1012C133.208 49.1519 133.261 49.1928 133.32 49.221C133.38 49.2492 133.445 49.264 133.512 49.2643Z" fill="#263238"/>
<path d="M117.435 73.3734C117.461 73.5988 117.526 73.8182 117.626 74.0218C117.751 74.3266 117.922 74.6109 118.131 74.8653C118.443 75.21 118.815 75.4945 119.229 75.7047C119.229 75.7047 119.504 75.832 119.52 75.8479C119.784 75.9854 120.059 76.0998 120.343 76.1901C120.902 76.3996 121.493 76.5139 122.09 76.5282C122.141 76.5272 122.192 76.539 122.238 76.5626C122.284 76.5862 122.323 76.6209 122.352 76.6635C122.425 76.7776 122.503 76.8879 122.587 76.9937C122.654 77.0852 122.715 77.1809 122.77 77.2801C122.803 77.3541 122.851 77.4207 122.911 77.476C122.97 77.5313 123.04 77.5743 123.116 77.6024C123.424 77.7067 123.746 77.7605 124.071 77.7615C124.857 77.7849 125.644 77.7249 126.418 77.5825C126.776 77.5149 127.289 77.4194 127.739 77.2961C128.244 77.1639 128.74 77.0032 129.227 76.8147C129.631 76.6735 130.018 76.488 130.381 76.2617C130.533 76.1766 130.661 76.0531 130.751 75.9036C130.79 75.8201 130.81 75.7485 130.854 75.6689C130.973 75.4501 131.089 75.2273 131.2 75.0085C131.371 74.6743 131.514 74.3322 131.654 73.998C131.798 73.6725 131.924 73.3391 132.032 72.9994C132.127 72.6573 132.231 72.3111 132.306 71.9571C132.433 71.3643 132.541 70.7437 132.628 70.0992C132.668 69.8008 132.672 69.4427 132.696 69.1205C132.712 68.8534 132.689 68.5853 132.628 68.3248C132.583 68.1457 132.494 67.9805 132.37 67.8434C132.028 67.4876 131.609 67.2154 131.144 67.0477C130.708 66.8868 130.249 66.7942 129.784 66.7732C129.585 66.7732 129.386 66.7215 129.195 66.7175C127.147 66.6283 125.11 67.0523 123.267 67.9508C122.848 68.1454 122.442 68.366 122.05 68.6112C121.688 68.8425 121.349 69.109 121.039 69.4069C120.799 69.6219 120.597 69.8762 120.443 70.1588C120.39 70.2597 120.35 70.3666 120.323 70.4771C120.283 70.6084 120.283 70.6124 120.152 70.6203C119.76 70.6358 119.375 70.73 119.021 70.8975C118.666 71.065 118.348 71.3022 118.087 71.595C117.886 71.8232 117.729 72.0861 117.622 72.3708C117.48 72.685 117.415 73.029 117.435 73.3734ZM123.152 70.7675C122.732 70.7736 122.312 70.7376 121.899 70.6601C121.798 70.6523 121.7 70.6224 121.612 70.5726C121.75 70.3016 121.941 70.0608 122.173 69.8644C122.325 69.7359 122.485 69.6164 122.651 69.5064C122.93 69.3196 123.222 69.1534 123.526 69.0091C123.953 68.8048 124.392 68.6242 124.839 68.468C125.595 68.1978 126.385 68.0357 127.186 67.9866C127.731 67.9351 128.278 67.9192 128.825 67.9389C129.364 67.9507 129.899 68.0322 130.416 68.1816C130.849 68.2913 131.242 68.5233 131.546 68.8499C131.537 68.8615 131.526 68.8722 131.514 68.8818C131.475 68.9136 131.435 68.9494 131.395 68.9773C131.287 69.0588 131.174 69.1332 131.057 69.2C130.612 69.447 130.143 69.647 129.657 69.7968L129.326 69.9002C129.265 69.9217 129.203 69.9389 129.139 69.952C128.781 70.0633 128.419 70.1429 128.057 70.2225C127.695 70.302 127.345 70.3617 126.991 70.4095C126.717 70.4413 126.394 70.493 126.195 70.5288C126.18 70.5325 126.163 70.5325 126.148 70.5288C126.148 70.5288 126.148 70.5288 126.128 70.5288L126.008 70.5527L125.105 70.6601C124.827 70.688 124.532 70.7317 124.23 70.7516C123.928 70.7715 123.518 70.7715 123.152 70.7675ZM119.396 72.6573C119.451 72.4891 119.545 72.3363 119.67 72.2111C119.795 72.086 119.948 71.9922 120.116 71.9372C120.202 71.9049 120.29 71.8796 120.379 71.8616C120.474 72.335 120.614 72.7687 120.733 73.2023C120.896 73.7614 121.092 74.3102 121.322 74.8454C121.421 75.1132 121.569 75.3602 121.759 75.5734C121.7 75.5416 121.433 75.4222 121.362 75.3904C120.976 75.1954 120.622 74.9433 120.311 74.6425C119.985 74.3693 119.715 74.0356 119.516 73.6598C119.43 73.5091 119.375 73.3428 119.355 73.1706C119.334 72.9984 119.348 72.8239 119.396 72.6573Z" fill="#64629D"/>
<path opacity="0.7" d="M121.206 70.9265C122.089 71.4039 123.502 71.2885 126.453 70.9026C129.405 70.5167 131.168 69.8842 131.924 69.0805C132.425 68.5514 132.19 67.8274 131.82 67.3977C131.606 67.256 131.376 67.1386 131.136 67.0476C130.699 66.8863 130.24 66.7937 129.775 66.7731C129.58 66.7731 129.378 66.7214 129.191 66.7134C127.139 66.6099 125.096 67.0374 123.259 67.9547C122.841 68.1479 122.436 68.3672 122.045 68.6111C121.83 68.751 121.622 68.9038 121.425 69.0686C120.78 69.6892 120.546 70.5764 121.206 70.9265ZM121.604 70.5724C121.739 70.3019 121.929 70.0622 122.161 69.8683C122.316 69.741 122.471 69.6176 122.638 69.5062C122.919 69.3205 123.211 69.153 123.513 69.005C123.94 68.8015 124.379 68.6235 124.826 68.4719C125.203 68.3412 125.587 68.2336 125.976 68.1496C126.371 68.074 126.769 68.0209 127.17 67.9905C127.714 67.9378 128.262 67.9205 128.809 67.9388C129.348 67.9515 129.883 68.0344 130.4 68.1854C130.834 68.2944 131.227 68.5249 131.534 68.8498L131.502 68.8816C131.464 68.9171 131.424 68.9503 131.383 68.9811C131.277 69.0627 131.165 69.1359 131.049 69.1999C130.604 69.4481 130.134 69.6494 129.648 69.8006L129.314 69.9041L129.131 69.9558C128.773 70.0552 128.411 70.1468 128.049 70.2223C127.687 70.2979 127.337 70.3656 126.979 70.4093C126.704 70.4451 126.382 70.4929 126.183 70.5287H126.139H126.115H126.016H125.992C125.706 70.5685 125.407 70.6003 125.089 70.6401C124.771 70.6799 124.516 70.7077 124.218 70.7276C123.919 70.7475 123.513 70.7276 123.147 70.7276C122.727 70.7317 122.308 70.6957 121.894 70.6202C121.796 70.6276 121.698 70.6112 121.608 70.5724H121.604Z" fill="white"/>
<path d="M121.612 70.5722C121.7 70.622 121.798 70.6519 121.899 70.6597C122.312 70.7372 122.732 70.7732 123.152 70.7671C123.518 70.7671 123.872 70.787 124.218 70.7671C124.564 70.7472 124.815 70.7035 125.093 70.6756L125.996 70.5682L126.116 70.5443C126.116 70.5443 126.116 70.5443 126.136 70.5443C126.151 70.5481 126.168 70.5481 126.183 70.5443C126.394 70.5085 126.717 70.4568 126.979 70.425C127.333 70.3772 127.695 70.3096 128.045 70.238C128.395 70.1664 128.769 70.0789 129.127 69.9675C129.191 69.9544 129.253 69.9372 129.314 69.9157L129.645 69.8123C130.131 69.6625 130.6 69.4625 131.045 69.2155C131.163 69.1487 131.275 69.0743 131.383 68.9928C131.423 68.9649 131.463 68.9291 131.503 68.8973C131.514 68.8877 131.525 68.877 131.534 68.8655C131.23 68.5389 130.837 68.3068 130.405 68.1971C129.887 68.0478 129.352 67.9662 128.813 67.9544C128.266 67.9347 127.719 67.9506 127.174 68.0021C126.373 68.0512 125.583 68.2133 124.827 68.4835C124.38 68.6397 123.941 68.8203 123.514 69.0246C123.211 69.1704 122.919 69.3365 122.639 69.5219C122.473 69.6319 122.313 69.7515 122.161 69.8799C121.934 70.0719 121.748 70.3073 121.612 70.5722Z" fill="#263238"/>
<path opacity="0.3" d="M121.588 69.6854C121.693 69.5512 121.807 69.4249 121.93 69.3074C122.962 68.4541 124.158 67.8205 125.443 67.4456C126.123 67.2405 126.826 67.1202 127.536 67.0875C129.493 66.9761 130.718 67.3501 131.196 67.6485C131.319 67.7267 131.434 67.8173 131.538 67.919C131.653 68.0401 131.72 68.1989 131.727 68.3658C131.733 68.5327 131.679 68.6963 131.574 68.8261C131.534 68.8699 131.49 68.9099 131.443 68.9454C130.348 67.9031 127.381 68.1219 126.374 68.2333C125.368 68.4203 122.849 69.2239 121.767 70.6203C121.715 70.6046 121.665 70.5846 121.616 70.5606C121.553 70.5074 121.502 70.4415 121.466 70.3672C121.43 70.2928 121.41 70.2118 121.407 70.1292C121.404 70.0467 121.419 69.9645 121.45 69.888C121.482 69.8116 121.528 69.7425 121.588 69.6854Z" fill="black"/>
<path d="M135.477 56.7597C134.311 55.8486 132.791 56.147 131.256 56.5289C130.675 56.6391 130.12 56.8578 129.621 57.1734C129.147 57.5196 128.861 58.1004 129.147 58.4386C129.434 58.7767 130.182 58.8762 130.05 59.3456C128.797 60.1095 127.265 60.2607 125.945 60.7182C124.975 61.0703 124.114 61.6712 123.45 62.4607C123.221 62.6659 123.057 62.9345 122.981 63.2325C122.913 63.7139 123.379 63.9725 123.816 64.1237C123.896 64.1515 123.888 64.2828 123.816 64.3306C123.496 64.5076 123.203 64.7316 122.949 64.9949C122.786 65.17 122.905 65.4286 123.112 65.3689L123.188 65.349C123.748 65.2138 124.186 65.4485 124.202 65.8861C124.179 66.1362 124.072 66.3711 123.898 66.553C123.725 66.7348 123.496 66.8531 123.247 66.8887C123.112 66.9205 123.211 67.0876 123.406 67.0995C123.793 67.0906 124.174 67.0012 124.524 66.8369C124.756 66.7776 124.972 66.6695 125.159 66.5199C125.345 66.3704 125.498 66.1828 125.606 65.9697C125.829 65.4604 125.706 64.6846 125.308 64.6767C126.239 64.4278 127.154 64.1236 128.049 63.7656C128.487 63.6314 128.865 63.3504 129.119 62.9699C129.322 62.5721 129.052 62.0191 128.626 62.1424C129.867 61.5497 131.172 61.1478 132.394 60.6307C133.606 60.1534 134.712 59.4409 135.648 58.534C135.846 58.3541 135.985 58.1183 136.046 57.8577C136.055 57.6409 136.008 57.4255 135.908 57.2328C135.808 57.0401 135.659 56.877 135.477 56.7597Z" fill="white"/>
<path d="M108.049 86.0522V85.7817C107.983 81.6628 107.907 77.5451 107.823 73.4288C107.748 69.5857 107.677 65.7399 107.608 61.8915V61.7443L108.682 61.4022C119.881 57.8535 131.462 54.1814 143.354 55.2039H143.521V55.3709C144.257 64.2706 144.714 72.0603 144.961 79.1816V79.3964H144.746C131.617 78.8554 118.95 82.408 108.292 85.9528L108.049 86.0522ZM108.002 62.0626C108.065 65.8553 108.137 69.648 108.216 73.4408C108.291 77.4696 108.365 81.497 108.439 85.5231C119.018 82.0182 131.554 78.5331 144.563 79.0264C144.332 72.0125 143.867 64.3502 143.147 55.6136C131.387 54.6469 119.905 58.2871 108.793 61.812L108.002 62.0626Z" fill="#64629D"/>
<path d="M60.2253 31.9741L60.9215 32.0656C60.9533 33.8639 60.8618 33.9951 60.7982 35.4433L60.0025 35.3637C60.138 34.2387 60.2124 33.1072 60.2253 31.9741Z" fill="#64629D"/>
<path d="M64.6851 32.7343C64.7806 34.449 64.7488 34.644 64.7686 36.0483L64.1162 35.929C63.424 34.9503 63.0818 34.4888 62.4254 33.6096C62.4254 34.3774 62.4254 34.8031 62.4015 35.6505L61.6058 35.5431C61.6377 34.1029 61.7093 33.9517 61.6536 32.1774L62.2623 32.2808C62.9505 33.4743 63.3006 33.4743 63.9571 34.6957C63.9785 33.9898 63.9612 33.2832 63.9053 32.5792L64.6851 32.7343Z" fill="#64629D"/>
<path d="M65.3052 35.8291C65.4087 35.6302 65.4604 35.5387 65.5599 35.3676C65.8936 35.6249 66.2769 35.8104 66.6857 35.9126C67.1472 36.0161 67.3302 35.9126 67.3302 35.7535C67.3302 35.2283 65.3848 34.9936 65.341 33.8717C65.341 33.3585 65.7389 32.8851 66.7335 33.1158C67.1766 33.227 67.5862 33.4441 67.927 33.7484C67.8623 33.9286 67.788 34.1053 67.7042 34.2775C67.4243 34.0542 67.1002 33.8928 66.7534 33.8041C66.2839 33.6927 66.1089 33.8041 66.1168 34.011C66.1367 34.5719 68.0742 34.8703 68.0822 35.8888C68.0822 36.3542 67.6366 36.7163 66.6778 36.5054C66.1744 36.3883 65.7048 36.1569 65.3052 35.8291Z" fill="#64629D"/>
<path d="M69.276 34.4922C68.8543 34.3768 68.6395 34.3211 68.2058 34.2137C68.2058 33.971 68.2058 33.8437 68.1859 33.5334C69.3794 33.8318 69.9643 33.9909 71.0822 34.3291C71.0822 34.6274 71.0822 34.7548 71.0822 35.0054C70.6843 34.886 70.4695 34.8303 70.0518 34.715C70.0518 35.7772 70.016 36.183 69.9841 37.281L69.2521 37.0821C69.2601 35.9602 69.2839 35.5465 69.276 34.4922Z" fill="#64629D"/>
<path d="M73.493 38.3357C73.3002 37.9687 73.085 37.6139 72.8485 37.2735H72.8047L72.0846 37.0507C72.0647 37.369 72.0568 37.5082 72.0369 37.8822C71.7146 37.7827 71.6152 37.7509 71.3367 37.6713C71.4083 36.3306 71.452 36.0203 71.4799 34.4369C72.0249 34.596 72.192 34.6438 72.928 34.8745C74.0619 35.2286 74.591 35.9566 74.5194 36.6727C74.5148 36.778 74.4894 36.8812 74.4446 36.9766C74.3998 37.0719 74.3365 37.1574 74.2584 37.2281C74.1803 37.2988 74.089 37.3532 73.9897 37.3883C73.8904 37.4235 73.7851 37.4385 73.6799 37.4326C73.929 37.8166 74.1548 38.2152 74.3563 38.6261L73.493 38.3357ZM72.8485 35.523L72.1801 35.3121C72.1602 35.7776 72.1483 35.9686 72.1204 36.446L72.7888 36.6568C73.3497 36.8359 73.6282 36.7125 73.66 36.3624C73.6919 36.0123 73.4373 35.706 72.8485 35.523Z" fill="#64629D"/>
<path d="M75.0211 37.4963C75.1086 36.7723 75.1524 36.4659 75.2279 35.6185L75.9083 35.8533C75.8366 36.6887 75.7969 37.011 75.7173 37.7151C75.6457 38.3238 75.8685 38.6222 76.2225 38.7575C76.5766 38.8927 76.8392 38.7575 76.871 38.1249C76.9108 37.4088 76.9307 37.0388 76.9665 36.1914L77.7383 36.4421C77.6945 37.2974 77.6747 37.6634 77.6309 38.4034C77.5712 39.3781 76.9148 39.6447 76.1629 39.3582C75.7808 39.2365 75.4553 38.9815 75.2457 38.6396C75.036 38.2978 74.9563 37.892 75.0211 37.4963Z" fill="#64629D"/>
<path d="M78.1914 38.3954C78.1839 38.1753 78.2343 37.957 78.3374 37.7624C78.4405 37.5678 78.5928 37.4035 78.7791 37.286C78.9654 37.1685 79.1792 37.1019 79.3993 37.0927C79.6193 37.0835 79.838 37.1321 80.0334 37.2337C80.5731 37.4488 81.012 37.8593 81.2627 38.3835C81.1201 38.5057 80.9639 38.6111 80.7972 38.6978C80.6265 38.3814 80.3607 38.1267 80.0374 37.9697C79.9218 37.9063 79.7914 37.8753 79.6597 37.8799C79.528 37.8845 79.4 37.9246 79.2892 37.9959C79.1784 38.0672 79.0888 38.167 79.0301 38.285C78.9713 38.4029 78.9454 38.5345 78.9553 38.6659C78.9416 38.9857 79.0262 39.3019 79.1976 39.5722C79.369 39.8424 79.619 40.0537 79.914 40.1777C80.0417 40.2424 80.1859 40.2672 80.3278 40.2487C80.4698 40.2303 80.6028 40.1695 80.7097 40.0743L81.1473 40.7705C80.837 41.0768 80.3716 41.0967 79.8146 40.854C79.3314 40.6504 78.9193 40.3083 78.6304 39.8707C78.3416 39.4331 78.1888 38.9197 78.1914 38.3954Z" fill="#64629D"/>
<path d="M82.2932 38.9126L81.3622 38.5346C81.3622 38.2402 81.3622 38.1169 81.3821 37.8464C82.4086 38.2721 82.8939 38.459 84.0596 38.9524C84.0596 39.211 84.0596 39.3224 84.0317 39.6247C83.614 39.4457 83.4032 39.3582 82.9655 39.1831C82.9655 40.4761 82.9337 40.8699 82.8899 42.155L82.2057 41.8446C82.2534 40.5795 82.2852 40.1817 82.2932 38.9126Z" fill="#64629D"/>
<path d="M84.4729 39.1313C84.7753 39.2626 84.9265 39.3262 85.2249 39.4615C85.1214 40.7664 85.0856 41.4905 84.9583 43.1017L84.2382 42.7675C84.3417 41.1682 84.3814 40.468 84.4729 39.1313Z" fill="#64629D"/>
<path d="M85.6633 41.3312C85.7548 40.2809 86.5266 39.9825 87.4774 40.4281C87.9509 40.6131 88.3568 40.938 88.6411 41.3595C88.9254 41.7809 89.0746 42.2789 89.0688 42.7873C89.0171 43.8575 88.2492 44.6969 87.2586 44.2354C86.268 43.7739 85.5758 42.3775 85.6633 41.3312ZM88.3328 42.477C88.3546 42.1803 88.2805 41.8845 88.1215 41.6331C87.9625 41.3817 87.7269 41.188 87.4496 41.0805C86.9045 40.8379 86.4589 40.9731 86.4033 41.6455C86.3755 41.9896 86.4437 42.3346 86.6003 42.6423C86.7569 42.9499 86.9958 43.2081 87.2904 43.388C87.8514 43.6426 88.293 43.1533 88.3208 42.477H88.3328Z" fill="#64629D"/>
<path d="M92.1561 42.6877C92.1561 43.8017 92.2078 44.7764 92.1919 46.6224C92.1362 46.5905 91.981 46.4831 91.8378 46.4075C91.4081 45.0668 91.0421 44.0205 90.3698 43.0418C90.4215 43.7261 90.4414 44.6332 90.4812 45.7193C90.151 45.5482 89.9719 45.4567 89.6179 45.2856C89.6179 43.5391 89.6179 42.6639 89.594 41.4823L90.143 41.7449C90.7557 42.7395 91.2212 43.1293 91.7582 44.474C91.6906 43.3482 91.7185 43.2248 91.6349 42.5047C91.9015 42.6241 91.9015 42.5684 92.1561 42.6877Z" fill="#64629D"/>
<path d="M69.6542 43.4239C69.694 42.5486 69.7099 42.1787 69.7418 41.3074C69.3439 41.928 69.1172 42.1985 68.6636 42.7993L68.2976 42.7118C67.9396 41.9439 67.7645 41.5859 67.4224 40.8021C67.3508 41.6495 67.311 42.0235 67.2314 42.847L66.4357 42.676C66.5909 41.2875 66.6585 40.635 66.8017 39.2028L67.4423 39.346C67.864 40.3526 68.0868 40.83 68.5403 41.8126C69.0973 41.0647 69.3598 40.7265 69.8611 39.9428L70.4539 40.1019C70.4141 41.566 70.4062 42.1349 70.3624 43.6109C70.0958 43.5353 69.9486 43.4955 69.6542 43.4239Z" fill="#64629D"/>
<path d="M73.4655 43.7264C72.7772 43.5036 72.3316 43.3684 71.7667 43.2092C71.6593 43.4798 71.6036 43.6071 71.4842 43.9094C71.1898 43.8259 71.0386 43.7821 70.7283 43.7026C71.349 42.3738 71.5439 41.8844 72.1804 40.6034C72.4947 40.6989 72.6817 40.7586 73.0079 40.866C73.6445 42.5488 74.0185 43.1416 74.6391 44.9239C74.3208 44.8085 74.1537 44.7449 73.7996 44.6255C73.6684 44.2476 73.6007 44.0725 73.4655 43.7264ZM73.187 43.0262C72.9403 42.4175 72.817 41.9998 72.5862 41.4866C72.3566 41.8659 72.1622 42.2654 72.0054 42.6801C72.4072 42.7835 72.7135 42.875 73.2029 43.0262H73.187Z" fill="#64629D"/>
<path d="M77.579 42.5685C77.5551 44.0882 77.579 44.4702 77.5551 46.0575L76.9783 45.8188C76.3735 44.6054 76.1826 44.2036 75.5659 43.0937C75.5978 43.9888 75.6137 44.323 75.6336 45.2897L74.9612 45.0311C74.9254 43.4398 74.8777 42.9942 74.8419 41.4904L75.4187 41.7092C76.0234 42.843 76.2343 43.2647 76.8589 44.3508C76.8589 43.5233 76.8589 43.1852 76.8589 42.2701C77.1533 42.4014 77.3005 42.4611 77.579 42.5685Z" fill="#64629D"/>
<path d="M78.291 44.8283C78.291 44.0844 78.291 43.7542 78.3268 42.8909L79.0668 43.2091C79.039 44.0685 79.027 44.4027 79.0151 45.1267C78.9814 45.3703 79.0276 45.6183 79.1466 45.8334C79.2657 46.0486 79.4512 46.2194 79.6755 46.3202C80.1131 46.5152 80.3757 46.372 80.3956 45.7712C80.4234 45.071 80.4394 44.705 80.4831 43.8298L81.1952 44.148C81.1475 45.0472 81.1276 45.4291 81.0998 46.1372C81.056 47.0483 80.5149 47.466 79.6477 47.0761C79.2266 46.8751 78.8737 46.555 78.6326 46.1555C78.3914 45.756 78.2727 45.2946 78.291 44.8283Z" fill="#64629D"/>
<path d="M83.8173 48.0191L82.2975 47.3627C82.1725 47.5777 82.0621 47.801 81.9673 48.031L81.2552 47.7207C81.84 46.4039 82.1821 46.2646 82.7988 44.8643L83.4831 45.1746C83.9804 47.0882 84.2509 47.494 84.8994 49.2922L84.1037 48.9501C83.9804 48.5681 83.9446 48.3811 83.8173 48.0191ZM83.5865 47.4025C83.3796 46.8932 83.2881 46.4755 83.1091 45.8787C82.9461 46.2434 82.7641 46.5992 82.5641 46.945L83.5865 47.4025Z" fill="#64629D"/>
<path d="M85.1933 45.9421L85.9293 46.2723C85.9293 47.6807 85.977 47.8637 85.9691 49.0572L87.5246 49.7296C87.5246 50.0041 87.5246 50.1473 87.5246 50.4298L85.2171 49.4471C85.1654 47.8915 85.1933 47.6608 85.1933 45.9421Z" fill="#64629D"/>
<path d="M89.4658 30.4112L92.5888 28.6488L95.6959 36.2276L89.4658 30.4112Z" fill="#64629D"/>
<path d="M106.457 33.4746L103.641 31.2547L99.4117 38.2686L106.457 33.4746Z" fill="#64629D"/>
<path d="M96.1927 26.5679L100.39 26.9658L98.2973 36.3746L96.1927 26.5679Z" fill="#64629D"/>
<path d="M127.308 4.33678C127.262 4.33586 127.217 4.31919 127.182 4.28953C127.146 4.25987 127.122 4.21899 127.113 4.17367C127.108 4.14803 127.108 4.12161 127.113 4.09599C127.118 4.07038 127.129 4.04608 127.143 4.02455C127.158 4.00302 127.177 3.98469 127.199 3.97067C127.221 3.95665 127.246 3.94721 127.272 3.94292C128.577 3.68831 129.894 3.46949 131.183 3.28649C131.235 3.2791 131.289 3.29298 131.332 3.32506C131.374 3.35714 131.402 3.4048 131.409 3.45756C131.417 3.51031 131.403 3.56384 131.371 3.60637C131.339 3.6489 131.291 3.67694 131.238 3.68433C129.957 3.86733 128.648 4.08216 127.348 4.33678H127.308Z" fill="#64629D"/>
<path d="M110.564 9.3175C110.511 9.32753 110.456 9.31618 110.412 9.28597C110.367 9.25575 110.337 9.20913 110.327 9.15638C110.317 9.10362 110.328 9.04904 110.358 9.00465C110.389 8.96026 110.435 8.92969 110.488 8.91966C115.357 6.95892 120.382 5.40988 125.51 4.28882C125.563 4.27818 125.617 4.28848 125.661 4.31751C125.706 4.34654 125.738 4.39196 125.749 4.44398C125.755 4.46934 125.756 4.49561 125.751 4.52124C125.747 4.54687 125.737 4.57135 125.723 4.59322C125.709 4.6151 125.691 4.63393 125.669 4.64861C125.648 4.66329 125.623 4.67353 125.598 4.67871C120.492 5.79428 115.488 7.33532 110.639 9.28567C110.617 9.30187 110.591 9.31275 110.564 9.3175Z" fill="#64629D"/>
<path d="M74.5193 107.166H70.1072C70.0545 107.166 70.0039 107.145 69.9666 107.108C69.9293 107.07 69.9083 107.02 69.9083 106.967C69.9083 106.914 69.9293 106.864 69.9666 106.826C70.0039 106.789 70.0545 106.768 70.1072 106.768H74.5193C74.572 106.768 74.6226 106.789 74.6599 106.826C74.6972 106.864 74.7182 106.914 74.7182 106.967C74.7182 107.02 74.6972 107.07 74.6599 107.108C74.6226 107.145 74.572 107.166 74.5193 107.166Z" fill="#64629D"/>
<path d="M67.7438 107.166H51.9058C51.8531 107.166 51.8025 107.145 51.7652 107.108C51.7279 107.07 51.7069 107.02 51.7069 106.967C51.7069 106.914 51.7279 106.864 51.7652 106.826C51.8025 106.789 51.8531 106.768 51.9058 106.768H67.7438C67.7962 106.769 67.8462 106.79 67.8833 106.828C67.9204 106.865 67.9417 106.915 67.9427 106.967C67.9427 107.02 67.9217 107.07 67.8844 107.108C67.8471 107.145 67.7965 107.166 67.7438 107.166Z" fill="#64629D"/>
<path d="M87.8352 55.3346C87.9519 55.1008 88.1136 54.8923 88.311 54.7209C88.5083 54.5496 88.7375 54.4189 88.9854 54.3361C89.2332 54.2534 89.495 54.2202 89.7557 54.2386C90.0164 54.2571 90.2709 54.3266 90.5047 54.4434C90.7385 54.5602 90.947 54.7218 91.1183 54.9192C91.2896 55.1165 91.4204 55.3457 91.5031 55.5936C91.5859 55.8415 91.619 56.1032 91.6006 56.3639C91.5822 56.6246 91.5126 56.8791 91.3958 57.1129V57.1447C90.6837 58.6167 89.9795 60.1643 89.3112 61.6841C88.6428 63.2038 88.0023 64.7395 87.4851 66.2672C87.3498 66.665 87.2344 67.027 87.123 67.409L87.0594 67.6158C87.0441 67.6484 87.0347 67.6834 87.0315 67.7193C87.0118 67.8295 87.0038 67.9415 87.0077 68.0535C87.0614 68.735 87.2142 69.4051 87.4612 70.0426C88.0476 71.5608 88.7388 73.0364 89.53 74.4587L89.5538 74.5024C89.6735 74.7142 89.7113 74.9625 89.6603 75.2003C89.6092 75.4381 89.4728 75.6489 89.2769 75.793C89.0809 75.937 88.8389 76.0042 88.5967 75.982C88.3545 75.9597 88.1289 75.8494 87.9625 75.6721C86.6575 74.3874 85.5368 72.928 84.6326 71.3356C84.1122 70.4372 83.7451 69.4584 83.5465 68.4394C83.4967 68.1237 83.4767 67.804 83.4868 67.4845C83.4954 67.164 83.5381 66.8452 83.6141 66.5337C83.7136 66.0842 83.813 65.6306 83.9324 65.197C84.3943 63.473 84.9616 61.779 85.6312 60.1245C86.2995 58.4894 87.0077 56.906 87.8392 55.3107L87.8352 55.3346Z" fill="#CB7A63"/>
<path d="M88.4128 74.4472L88.1344 74.6541C87.9982 74.7497 87.8955 74.8855 87.8405 75.0425C87.7856 75.1995 87.7812 75.3698 87.828 75.5294C88.0338 76.1524 88.3953 76.7124 88.8783 77.1565L90.8277 74.8292L89.1528 74.3199C89.0282 74.281 88.8961 74.2722 88.7675 74.2943C88.6388 74.3165 88.5173 74.3689 88.4128 74.4472Z" fill="#CB7A63"/>
<path d="M90.835 74.8287L88.8856 77.1561L91.0657 77.9279L93.1583 76.2252L90.835 74.8287Z" fill="#CB7A63"/>
<path d="M100.184 43.0176C100.32 42.9898 100.467 43.133 100.511 43.3399C100.554 43.5467 100.483 43.7377 100.348 43.7656C100.212 43.7934 100.065 43.6502 100.021 43.4433C99.9775 43.2364 100.049 43.0415 100.184 43.0176Z" fill="#263238"/>
<path d="M100.61 45.7509C100.788 45.7598 100.966 45.7287 101.131 45.6599C101.295 45.591 101.442 45.4862 101.561 45.353C101.036 44.898 100.575 44.3733 100.192 43.7935L100.61 45.7509Z" fill="#B74D3C"/>
<path d="M99.102 42.433C99.2021 42.3113 99.3297 42.2151 99.4742 42.1522C99.6187 42.0892 99.7761 42.0614 99.9334 42.071H99.9732C100.007 42.071 100.039 42.0576 100.063 42.0337C100.087 42.0098 100.101 41.9774 100.101 41.9437C100.101 41.9099 100.087 41.8775 100.063 41.8536C100.039 41.8298 100.007 41.8164 99.9732 41.8164C99.7778 41.7984 99.581 41.8272 99.399 41.9006C99.217 41.9739 99.0552 42.0896 98.9269 42.2381C98.9066 42.2612 98.8952 42.2908 98.8951 42.3216C98.8946 42.3381 98.8973 42.3546 98.9033 42.37C98.9093 42.3855 98.9183 42.3995 98.9298 42.4114C98.9413 42.4233 98.9551 42.4327 98.9703 42.4392C98.9855 42.4456 99.0019 42.4489 99.0184 42.4489C99.0473 42.4545 99.0772 42.4488 99.102 42.433Z" fill="#263238"/>
<path d="M97.7296 55.0679C94.1491 55.1037 93.616 53.1623 93.616 53.1623C94.6782 52.1279 94.7299 50.2223 94.5031 48.5235C94.7882 48.9272 95.149 49.2717 95.5654 49.538C95.9438 49.7951 96.372 49.9698 96.8223 50.0507C97.2727 50.1316 97.7349 50.1168 98.1792 50.0074C98.1934 50.0117 98.2087 50.0117 98.2229 50.0074C98.2192 50.0418 98.2192 50.0765 98.2229 50.1109C98.0081 51.4715 98.1991 52.9276 99.6273 53.3533C99.6074 53.3373 101.66 55.0242 97.7296 55.0679Z" fill="#CB7A63"/>
<path d="M98.3226 49.4905C98.2788 49.6553 98.2456 49.8227 98.2232 49.9918C98.2089 49.9961 98.1937 49.9961 98.1794 49.9918C97.7352 50.1012 97.2729 50.1159 96.8226 50.0351C96.3723 49.9542 95.944 49.7795 95.5656 49.5223C95.1492 49.2561 94.7885 48.9115 94.5034 48.5078C94.4517 48.0782 94.3721 47.6565 94.2925 47.2745L98.1754 49.395L98.3226 49.4905Z" fill="#CB7A63"/>
<path d="M92.53 53.4925C92.53 53.4925 93.095 51.7499 93.9463 51.2009C94.7977 50.6519 98.5334 51.2208 99.1182 51.4516C99.7031 51.6823 100.312 53.0429 100.312 53.0429L92.53 53.4925Z" fill="#64629D"/>
<path d="M92.0599 58.955C91.6362 60.7893 90.5674 62.4102 89.0483 63.5222L84.9028 60.4708C84.9028 60.4708 87.3495 53.7433 89.8002 53.1505C92.2986 52.5577 92.8596 55.6529 92.0599 58.955Z" fill="#263238"/>
<path opacity="0.2" d="M92.1727 58.3661C92.1408 58.5611 92.0971 58.764 92.0493 58.9549C91.6277 60.788 90.5618 62.4088 89.0457 63.5221L88.8268 63.355C88.8845 61.3017 89.6812 59.3381 91.0707 57.8251L92.1727 58.3661Z" fill="black"/>
<path d="M84.3705 58.9792L83.8453 61.0798L89.0292 64.4296L89.9044 62.7746L84.3705 58.9792Z" fill="#64629D"/>
<path d="M101.45 52.7491C100.873 52.6537 100.229 52.5661 99.5681 52.5144C97.5793 52.4204 95.5868 52.4417 93.6005 52.5781C92.3195 52.6724 91.0479 52.8666 89.7972 53.1589C90.8156 67.1827 90.195 74.0574 89.9722 76.0625L104.016 75.9113C105.468 64.3501 105.066 58.5218 104.501 55.6932C104.351 54.9508 103.979 54.2715 103.434 53.7457C102.889 53.2198 102.197 52.8723 101.45 52.7491Z" fill="#263238"/>
<path opacity="0.2" d="M103.908 75.9111H104.031C104.931 68.6704 105.114 63.6815 104.982 60.268L98.8078 56.6875C99.7547 66.3231 102.269 70.7232 103.908 75.9111Z" fill="black"/>
<path d="M100.877 46.5785C100.866 47.1921 100.699 47.7929 100.391 48.324C100.083 48.8551 99.6455 49.2991 99.1187 49.614C98.8482 49.7825 98.5528 49.9073 98.2434 49.984C98.2292 49.9883 98.214 49.9883 98.1997 49.984C97.7554 50.0934 97.2932 50.1081 96.8429 50.0272C96.3925 49.9464 95.9643 49.7717 95.5859 49.5145C95.1695 49.2483 94.8088 48.9037 94.5237 48.5C93.8235 47.5412 93.533 46.2642 93.0318 44.462C92.8687 43.8823 92.8552 43.2708 92.9927 42.6846C93.1302 42.0983 93.4141 41.5565 93.8178 41.1098C94.2216 40.6631 94.7321 40.3261 95.3015 40.1303C95.8709 39.9345 96.4807 39.8863 97.0738 39.9903C99.7751 40.4677 100.929 44.1596 100.877 46.5785Z" fill="#CB7A63"/>
<path opacity="0.2" d="M99.0984 49.6216C98.8279 49.7901 98.5325 49.915 98.2232 49.9916C98.2232 49.9916 98.3187 48.4003 98.3187 48.4003C98.3187 48.4003 98.9114 49.6216 99.0984 49.6216Z" fill="black"/>
<path d="M99.3169 45.2059C99.2648 45.762 99.0962 46.301 98.822 46.7876C98.5478 47.2743 98.1742 47.6978 97.7255 48.0305C97.6057 48.1161 97.4707 48.1782 97.3277 48.2135C96.8742 48.317 96.4485 47.9271 96.2416 47.5093C96.0051 46.9509 95.8872 46.3494 95.8955 45.7429C95.8438 44.3227 96.0188 42.7631 97.0214 41.7646C97.2426 41.5083 97.5523 41.3449 97.8886 41.307C99.1737 41.2434 99.4044 44.3903 99.3169 45.2059Z" fill="#263238"/>
<path d="M99.3726 40.1294C98.9742 39.7417 98.4799 39.4671 97.9403 39.3337C97.1793 39.0776 96.387 38.9264 95.5851 38.8841C94.7745 38.8478 93.9778 39.1048 93.3413 39.6082C92.665 40.189 92.3427 41.0683 92.0444 41.9077L91.5033 43.4115C91.3573 43.6782 91.2944 43.9825 91.3228 44.2853C91.3512 44.588 91.4694 44.8753 91.6624 45.1103C92.1558 45.906 92.6504 46.7017 93.1464 47.4973C93.3772 47.8318 93.5494 48.2031 93.6556 48.5954C93.7049 48.792 93.7021 48.9981 93.6477 49.1934C93.5933 49.3887 93.4891 49.5664 93.3453 49.7093C93.5954 49.6776 93.8362 49.5943 94.0526 49.4649C94.2689 49.3355 94.4562 49.1627 94.6025 48.9574C94.6223 49.1921 94.5811 49.4279 94.4828 49.6419C94.3845 49.856 94.2325 50.0409 94.0415 50.1788C94.6199 49.967 95.1328 49.6076 95.5294 49.1364C95.4472 49.3947 95.2925 49.6239 95.0839 49.7968C95.8795 49.9162 96.532 49.2001 96.9855 48.5357C97.5465 47.7161 98.0716 46.6818 97.6738 45.7747C97.5425 45.4763 97.3197 45.2217 97.1884 44.9193C97.0734 44.584 97.0471 44.2246 97.1119 43.8761C97.1767 43.5276 97.3305 43.2017 97.5584 42.9301C98.0179 42.3902 98.5687 41.935 99.1856 41.5854C99.1856 41.5854 99.9773 40.7937 99.3726 40.1294Z" fill="#263238"/>
<path d="M98.6644 43.3157C99.4123 43.5384 99.8062 44.6444 99.8579 45.3446C99.8937 46.1403 99.3765 46.6098 98.7002 46.0926C98.1897 45.6896 97.825 45.1308 97.6618 44.5012C97.4709 43.7612 97.9165 43.0968 98.6644 43.3157Z" fill="#CB7A63"/>
<path d="M97.3435 142.644C97.3304 142.643 97.3181 142.637 97.3088 142.627C97.2994 142.618 97.2934 142.606 97.2918 142.593C97.2875 142.58 97.2879 142.566 97.293 142.554C97.2982 142.541 97.3076 142.531 97.3196 142.525C97.3713 142.501 98.3341 141.928 98.7996 142.044C98.8443 142.052 98.8867 142.069 98.9238 142.095C98.9609 142.122 98.9918 142.156 99.0144 142.195C99.0442 142.237 99.0603 142.287 99.0603 142.338C99.0603 142.389 99.0442 142.44 99.0144 142.481C98.903 142.644 98.5728 142.7 98.2187 142.708C97.9257 142.713 97.6327 142.692 97.3435 142.644ZM98.6365 142.151C98.2536 142.206 97.8849 142.335 97.5504 142.529C98.0715 142.593 98.7757 142.573 98.903 142.394C98.9309 142.366 98.9468 142.33 98.903 142.247C98.888 142.223 98.8683 142.202 98.845 142.187C98.8217 142.171 98.7954 142.16 98.7678 142.155C98.7255 142.149 98.6827 142.149 98.6404 142.155L98.6365 142.151Z" fill="#64629D"/>
<path d="M97.3158 142.632C97.3073 142.625 97.3005 142.616 97.2957 142.605C97.2909 142.595 97.2883 142.584 97.2879 142.573C97.2929 142.177 97.4333 141.795 97.6857 141.491C97.7352 141.445 97.7938 141.411 97.8577 141.39C97.9215 141.37 97.9891 141.363 98.0557 141.371C98.2387 141.371 98.3024 141.479 98.3064 141.55C98.3661 141.872 97.7176 142.477 97.3794 142.636H97.3555C97.3422 142.639 97.3283 142.638 97.3158 142.632ZM98.0199 141.499C97.9329 141.5 97.85 141.536 97.7892 141.598C97.5882 141.845 97.4663 142.148 97.4391 142.465C97.7812 142.25 98.2348 141.769 98.183 141.578C98.183 141.578 98.183 141.506 98.0518 141.506H98.0159L98.0199 141.499Z" fill="#64629D"/>
<path d="M94.4032 136.207L97.1841 136.156L97.0806 142.577L94.2878 142.632L94.4032 136.207Z" fill="#CB7A63"/>
<path d="M97.7334 142.461C99.659 143.587 100.244 143.627 102.452 144.053C102.933 144.148 102.651 145.314 101.501 145.338C99.5993 145.373 99.4004 145.29 97.7772 145.318C96.3887 145.346 94.7974 145.441 93.6914 145.481C93.6583 145.485 93.625 145.485 93.5919 145.481C93.5391 145.471 93.4889 145.451 93.4442 145.421C93.3995 145.391 93.3613 145.352 93.332 145.307C93.3026 145.262 93.2826 145.212 93.2733 145.159C93.264 145.106 93.2654 145.052 93.2776 144.999L93.767 142.505C93.7792 142.451 93.8088 142.403 93.8513 142.368C93.8937 142.332 93.9466 142.312 94.0017 142.31L97.0571 142.254C97.2975 142.259 97.5319 142.33 97.7334 142.461Z" fill="#263238"/>
<path opacity="0.2" d="M94.3994 136.211L94.3437 139.513L97.1326 139.458L97.1843 136.159L94.3994 136.211Z" fill="black"/>
<path d="M74.0345 143.062C74.0325 143.075 74.0264 143.088 74.0172 143.098C74.008 143.108 73.996 143.115 73.9828 143.118C73.9691 143.121 73.9549 143.119 73.9425 143.112C73.9301 143.106 73.9205 143.095 73.9152 143.082C73.8873 143.034 73.3343 142.067 73.4616 141.602C73.4842 141.515 73.5381 141.44 73.6128 141.391C73.6552 141.361 73.706 141.345 73.758 141.345C73.8101 141.345 73.8608 141.361 73.9032 141.391C74.0663 141.506 74.1101 141.837 74.1141 142.211C74.1131 142.496 74.0865 142.781 74.0345 143.062ZM73.569 141.769C73.6146 142.15 73.7335 142.519 73.9191 142.855C73.9908 142.338 73.9868 141.634 73.8078 141.506C73.7839 141.479 73.7441 141.463 73.6605 141.506C73.6363 141.52 73.6155 141.539 73.5997 141.562C73.5838 141.584 73.5734 141.61 73.569 141.638C73.5651 141.68 73.5651 141.723 73.569 141.765V141.769Z" fill="#64629D"/>
<path d="M74.0298 143.09C74.0231 143.1 74.014 143.107 74.0036 143.112C73.9931 143.117 73.9816 143.119 73.9701 143.118C73.9423 143.118 73.1745 143.066 72.896 142.696C72.8519 142.646 72.8189 142.587 72.7991 142.524C72.7792 142.46 72.7729 142.393 72.7806 142.327C72.8005 142.147 72.892 142.084 72.9676 142.084C73.2859 142.028 73.8866 142.685 74.0378 143.019V143.047C74.0409 143.062 74.038 143.077 74.0298 143.09ZM72.8999 142.382C72.9047 142.467 72.9384 142.547 72.9954 142.609C73.24 142.814 73.5412 142.938 73.8587 142.967C73.6479 142.625 73.1784 142.171 72.9875 142.211C72.9875 142.211 72.9119 142.211 72.9119 142.338V142.382H72.8999Z" fill="#64629D"/>
<path d="M75.475 136.561L78.1883 136.7L76.7242 143.205L73.9951 143.062L75.475 136.561Z" fill="#CB7A63"/>
<path d="M73.3342 142.72C72.6022 143.603 72.2163 144.057 70.0799 144.769C69.6105 144.924 70.0361 146.046 71.1819 145.923C73.0756 145.72 72.0293 145.744 73.6445 145.569C75.025 145.418 76.6164 145.314 77.7184 145.215C77.7548 145.212 77.7908 145.205 77.8258 145.195C77.8776 145.179 77.9257 145.153 77.9671 145.118C78.0085 145.083 78.0423 145.04 78.0665 144.992C78.0907 144.943 78.1048 144.891 78.1079 144.837C78.111 144.782 78.103 144.728 78.0844 144.678L77.2887 142.267C77.2709 142.214 77.2354 142.169 77.1884 142.139C77.1413 142.11 77.0854 142.097 77.0301 142.104L73.9986 142.426C73.8739 142.428 73.7509 142.456 73.6368 142.506C73.5227 142.557 73.4198 142.629 73.3342 142.72Z" fill="#263238"/>
<path opacity="0.2" d="M75.4702 136.565L74.7143 139.907L77.4315 140.047L78.1874 136.701L75.4702 136.565Z" fill="black"/>
<path d="M89.9761 76.0619C89.0598 77.8051 88.27 79.612 87.6129 81.4685C86.5824 84.3318 85.8518 87.2943 85.4328 90.3085C84.6371 95.1223 84.2392 98.7108 83.3879 102.371C80.7542 113.821 74.1381 138.009 74.1381 138.009L79.0594 138.984C79.0594 138.984 88.6075 110.841 91.0224 102.641C93.1946 95.2615 98.7524 75.8749 98.7524 75.8749L89.9761 76.0619Z" fill="#64629D"/>
<path opacity="0.5" d="M89.9761 76.0619C89.0598 77.8051 88.27 79.612 87.6129 81.4685C86.5824 84.3318 85.8518 87.2943 85.4328 90.3085C84.6371 95.1223 84.2392 98.7108 83.3879 102.371C80.7542 113.821 74.1381 138.009 74.1381 138.009L79.0594 138.984C79.0594 138.984 88.6075 110.841 91.0224 102.641C93.1946 95.2615 98.7524 75.8749 98.7524 75.8749L89.9761 76.0619Z" fill="black"/>
<path d="M73.5459 137.102V138.845L79.4578 139.358C79.4578 139.358 79.9431 137.444 79.9193 137.444L73.5459 137.102Z" fill="#64629D"/>
<path opacity="0.3" d="M96.1819 84.7943C94.4314 90.8813 92.2035 98.5794 91.01 102.621C90.9543 102.816 90.8907 103.019 90.831 103.234C91.189 96.5186 92.2712 85.2518 95.6329 84.7665C95.8157 84.7354 96.0032 84.7449 96.1819 84.7943Z" fill="black"/>
<path d="M94.4911 75.9427C94.4911 75.9427 93.4447 94.4502 93.4646 103.187C93.4646 111.334 93.5959 138.885 93.5959 138.885L98.3183 138.793C98.3183 138.793 101.043 110.686 101.708 102.403C102.34 94.5576 104.019 75.9109 104.019 75.9109L94.4911 75.9427Z" fill="#64629D"/>
<path opacity="0.5" d="M94.4911 75.9427C94.4911 75.9427 93.4447 94.4502 93.4646 103.187C93.4646 111.334 93.5959 138.885 93.5959 138.885L98.3183 138.793C98.3183 138.793 101.043 110.686 101.708 102.403C102.34 94.5576 104.019 75.9109 104.019 75.9109L94.4911 75.9427Z" fill="black"/>
<path d="M92.8636 137.254L93.0585 138.981L98.7993 138.869C98.7993 138.869 99.0301 136.924 99.0062 136.924L92.8636 137.254Z" fill="#64629D"/>
<path d="M108.153 66.1044C109.502 66.2556 110.719 64.4613 110.986 63.1326C111.443 60.8609 110.19 58.629 108.965 56.6557L104.557 49.4947C104.346 49.1525 105.691 51.3406 104.955 50.0317C104.557 49.2997 103.113 49.2918 102.536 50.5052C104.079 53.3338 104.358 55.6771 105.269 58.7683C105.537 59.4703 105.615 60.2305 105.496 60.9723C105.165 62.321 102.436 61.207 103.109 62.5159C103.594 63.4787 105.281 65.7742 108.153 66.1044Z" fill="#CB7A63"/>
<path d="M103.896 54.173C106.283 56.4009 107.477 60.8805 107.477 60.8805L103.236 63.1681C103.236 63.1681 98.1791 59.0147 98.8594 55.458C99.3647 52.7328 100.976 51.408 103.896 54.173Z" fill="#263238"/>
<path d="M100.977 62.1297L102.306 63.7568L108.146 60.5582L107.41 58.7281L100.977 62.1297Z" fill="#64629D"/>
<path d="M105.181 50.525C104.784 49.7293 103.9 48.0663 103.511 47.2508C103.457 47.1123 103.367 46.9902 103.252 46.8967C103.152 46.8397 103.043 46.8019 102.93 46.7853C102.05 46.6222 101.135 46.4551 100.276 46.6978C100.211 46.7116 100.151 46.7448 100.105 46.7932C100.075 46.8415 100.058 46.896 100.053 46.9524C99.9897 47.4417 99.922 47.9311 99.8544 48.4164C99.8286 48.5236 99.8286 48.6354 99.8544 48.7427C99.901 48.8413 99.9706 48.9272 100.057 48.9933C100.479 49.3593 100.897 49.7293 101.314 50.0993C101.513 50.3048 101.761 50.4556 102.035 50.5369C102.46 50.6284 102.87 50.3778 103.272 50.2067C103.674 50.0356 105.181 50.525 105.181 50.525Z" fill="#CB7A63"/>
</svg>
