<svg width="199" height="149" viewBox="0 0 199 149" fill="none" xmlns="http://www.w3.org/2000/svg">
<path d="M199 130.305H0V130.405H199V130.305Z" fill="#EBEBEB"/>
<path d="M179.06 136.709H165.878V136.809H179.06V136.709Z" fill="#EBEBEB"/>
<path d="M131.826 137.792H128.367V137.891H131.826V137.792Z" fill="#EBEBEB"/>
<path d="M165.48 133.016H157.843V133.115H165.48V133.016Z" fill="#EBEBEB"/>
<path d="M38.0689 133.684H20.8793V133.784H38.0689V133.684Z" fill="#EBEBEB"/>
<path d="M44.1347 133.684H41.6154V133.784H44.1347V133.684Z" fill="#EBEBEB"/>
<path d="M89.6098 135.364H52.3251V135.463H89.6098V135.364Z" fill="#EBEBEB"/>
<path d="M94.3262 112.554H17.4764C16.8743 112.553 16.2973 112.313 15.872 111.887C15.4466 111.461 15.2078 110.884 15.2078 110.282V2.25268C15.213 1.6541 15.4542 1.08176 15.879 0.659971C16.3037 0.238186 16.8778 0.0010254 17.4764 0H94.3262C94.9289 0 95.507 0.239432 95.9331 0.665623C96.3593 1.09181 96.5988 1.66985 96.5988 2.27258V110.282C96.5988 110.885 96.3593 111.463 95.9331 111.889C95.507 112.315 94.9289 112.554 94.3262 112.554ZM17.4764 0.0796003C16.9007 0.0806546 16.349 0.310068 15.9423 0.717485C15.5357 1.1249 15.3073 1.67703 15.3073 2.25268V110.282C15.3073 110.857 15.5357 111.41 15.9423 111.817C16.349 112.224 16.9007 112.454 17.4764 112.455H94.3262C94.9022 112.454 95.4543 112.225 95.8616 111.817C96.2689 111.41 96.4982 110.858 96.4993 110.282V2.25268C96.4982 1.67667 96.2689 1.12455 95.8616 0.717242C95.4543 0.309939 94.9022 0.0806524 94.3262 0.0796003H17.4764Z" fill="#EBEBEB"/>
<path d="M180.417 112.554H103.564C102.961 112.553 102.384 112.314 101.958 111.888C101.532 111.462 101.292 110.884 101.291 110.282V2.25268C101.297 1.65374 101.539 1.0814 101.965 0.659722C102.39 0.238047 102.965 0.00101422 103.564 0H180.417C181.015 0.00207139 181.588 0.239695 182.012 0.661368C182.436 1.08304 182.677 1.65479 182.682 2.25268V110.282C182.682 110.883 182.444 111.46 182.019 111.886C181.595 112.312 181.019 112.552 180.417 112.554ZM103.564 0.0796003C102.988 0.0806524 102.435 0.309939 102.028 0.717242C101.621 1.12455 101.392 1.67667 101.39 2.25268V110.282C101.392 110.858 101.621 111.41 102.028 111.817C102.435 112.225 102.988 112.454 103.564 112.455H180.417C180.993 112.454 181.545 112.225 181.953 111.817C182.36 111.41 182.589 110.858 182.59 110.282V2.25268C182.589 1.67667 182.36 1.12455 181.953 0.717242C181.545 0.309939 180.993 0.0806524 180.417 0.0796003H103.564Z" fill="#EBEBEB"/>
<path d="M167.367 10.9129H77.3274V62.5653H167.367V10.9129Z" fill="#E6E6E6"/>
<path d="M169.775 10.9129H78.4538V62.5653H169.775V10.9129Z" fill="#F0F0F0"/>
<path d="M167.367 62.5655H77.3274V67.039H167.367V62.5655Z" fill="#E6E6E6"/>
<path d="M173.783 62.5655H82.4617V67.039H173.783V62.5655Z" fill="#F0F0F0"/>
<path d="M166.403 59.1946V14.2803L81.8204 14.2803V59.1946L166.403 59.1946Z" fill="#FAFAFA"/>
<path d="M88.0372 59.1946L107.81 14.2803H117.147L97.3703 59.1946H88.0372Z" fill="white"/>
<path d="M83.3818 55.8433C83.3181 55.8422 83.2574 55.8162 83.2127 55.7708C83.168 55.7254 83.143 55.6642 83.143 55.6005V16.4731C83.1505 16.4146 83.1791 16.3608 83.2235 16.3218C83.2678 16.2829 83.3248 16.2614 83.3838 16.2614C83.4428 16.2614 83.4998 16.2829 83.5441 16.3218C83.5884 16.3608 83.617 16.4146 83.6246 16.4731V55.6005C83.6246 55.6324 83.6183 55.6639 83.6061 55.6934C83.5939 55.7229 83.576 55.7496 83.5535 55.7722C83.5309 55.7947 83.5042 55.8126 83.4747 55.8248C83.4453 55.837 83.4137 55.8433 83.3818 55.8433Z" fill="#F0F0F0"/>
<path d="M99.3758 59.1946L119.152 14.2803H122.79L103.014 59.1946H99.3758Z" fill="white"/>
<path d="M166.403 59.1946V14.2803H165.978V59.1946H166.403Z" fill="#E6E6E6"/>
<path opacity="0.6" d="M170.571 19.3626H80.5316L80.2211 15.5895H170.261L170.571 19.3626Z" fill="#EBEBEB"/>
<path opacity="0.6" d="M170.571 25.5438H80.5316L80.2211 21.7748H170.261L170.571 25.5438Z" fill="#EBEBEB"/>
<path opacity="0.6" d="M170.571 31.7287H80.5316L80.2211 27.9596H170.261L170.571 31.7287Z" fill="#EBEBEB"/>
<path opacity="0.6" d="M170.571 37.9137H80.5316L80.2211 34.1406H170.261L170.571 37.9137Z" fill="#EBEBEB"/>
<path opacity="0.6" d="M170.571 44.0985H80.5316L80.2211 40.3254H170.261L170.571 44.0985Z" fill="#EBEBEB"/>
<path opacity="0.6" d="M170.571 50.2794H80.5316L80.2211 46.5103H170.261L170.571 50.2794Z" fill="#EBEBEB"/>
<path d="M56.5681 25.5956H25.6912V67.0353H56.5681V25.5956Z" fill="#E6E6E6"/>
<path d="M58.7204 25.5956H26.1561V67.0353H58.7204V25.5956Z" fill="#F0F0F0"/>
<path d="M55.9901 64.3051V28.322H28.8823L28.8823 64.3051H55.9901Z" fill="white"/>
<path d="M42.2522 55.8316L37.2772 50.8566C36.0753 49.6516 35.4004 48.0192 35.4004 46.3174C35.4004 44.6155 36.0753 42.9832 37.2772 41.7782L42.2522 36.7992C42.3018 36.7513 42.3682 36.7245 42.4372 36.7245C42.5062 36.7245 42.5726 36.7513 42.6223 36.7992L47.6013 41.7901C48.8031 42.9951 49.478 44.6275 49.478 46.3293C49.478 48.0312 48.8031 49.6636 47.6013 50.8685L42.6223 55.8435C42.5974 55.8674 42.568 55.8861 42.5358 55.8985C42.5036 55.9109 42.4692 55.9167 42.4347 55.9156C42.4002 55.9144 42.3663 55.9064 42.3349 55.892C42.3036 55.8776 42.2754 55.857 42.2522 55.8316ZM42.4392 37.3564L37.6632 42.1324C36.56 43.2395 35.9406 44.7386 35.9406 46.3015C35.9406 47.8643 36.56 49.3635 37.6632 50.4705L42.4392 55.2465L47.2152 50.4705C48.3203 49.3645 48.9411 47.865 48.9411 46.3015C48.9411 44.738 48.3203 43.2384 47.2152 42.1324L42.4392 37.3564Z" fill="#F0F0F0"/>
<path d="M88.8899 87.6676C88.6869 87.6676 88.4919 87.6676 88.273 87.6875C83.895 88.0377 80.3846 92.1929 80.106 97.3111C80.0436 98.4469 80.1414 99.5857 80.3966 100.694C81.3596 105.108 81.8229 109.617 81.7776 114.135V127.336C81.7776 128.291 82.4383 129.068 83.2542 129.068H112.388V87.6756L88.8899 87.6676Z" fill="#F0F0F0"/>
<path d="M121.182 97.9877C121.182 92.0496 116.904 87.2815 111.762 87.6915C107.384 88.0417 103.869 92.1968 103.595 97.3151C103.528 98.4492 103.623 99.5869 103.877 100.694C104.84 105.108 105.304 109.617 105.258 114.135V127.336C105.258 128.291 105.919 129.068 106.735 129.068H118.022C118.818 129.068 119.499 128.291 119.499 127.336V113.343C119.466 109.105 119.924 104.878 120.864 100.746C121.076 99.8419 121.183 98.9163 121.182 97.9877Z" fill="#FAFAFA"/>
<path d="M100.249 105.649H69.5037V129.047H100.249V105.649Z" fill="#F5F5F5"/>
<path d="M50.2005 77.6102H83.9788C85.8925 77.6102 87.7279 78.3704 89.0811 79.7236C90.4343 81.0768 91.1945 82.9122 91.1945 84.8259V109.605H42.9848V84.8259C42.9848 82.9122 43.745 81.0768 45.0982 79.7236C46.4515 78.3704 48.2868 77.6102 50.2005 77.6102Z" fill="#E6E6E6"/>
<path d="M55.4495 77.6102H85.8686C86.8026 77.6102 87.7275 77.7941 88.5904 78.1516C89.4533 78.509 90.2373 79.0329 90.8978 79.6933C91.5582 80.3537 92.0821 81.1378 92.4395 82.0007C92.7969 82.8636 92.9809 83.7884 92.9809 84.7224V109.605H48.3333V84.7224C48.3333 83.7881 48.5173 82.8629 48.875 81.9998C49.2327 81.1366 49.7569 80.3524 50.4178 79.6919C51.0786 79.0314 51.8632 78.5076 52.7265 78.1504C53.5899 77.7932 54.5152 77.6096 55.4495 77.6102Z" fill="#F5F5F5"/>
<path d="M71.4842 104.805H100.22C100.63 104.805 101.024 104.968 101.315 105.259C101.605 105.549 101.768 105.943 101.768 106.354V108.845C101.768 109.256 101.605 109.649 101.315 109.94C101.024 110.23 100.63 110.393 100.22 110.393H71.4842C71.3618 110.393 71.2443 110.345 71.1577 110.258C71.0712 110.171 71.0225 110.054 71.0225 109.932V105.267C71.0225 105.145 71.0712 105.027 71.1577 104.941C71.2443 104.854 71.3618 104.805 71.4842 104.805Z" fill="#EBEBEB"/>
<path d="M39.3787 129.047H112.822V129.143C112.822 129.451 112.699 129.747 112.481 129.965C112.263 130.183 111.968 130.305 111.66 130.305H40.5369C40.2287 130.305 39.9331 130.183 39.7151 129.965C39.4972 129.747 39.3748 129.451 39.3748 129.143V129.047H39.3787Z" fill="#E6E6E6"/>
<path d="M39.8201 87.6675C39.6172 87.6675 39.4221 87.6675 39.2032 87.6874C34.8252 88.0377 31.3109 92.1928 31.0363 97.3111C30.9735 98.4385 31.0686 99.5691 31.3189 100.67C32.2819 105.084 32.7452 109.593 32.6999 114.111V127.312C32.6999 128.268 33.3606 129.044 34.1765 129.044H69.9209V87.6516L39.8201 87.6675Z" fill="#F0F0F0"/>
<path d="M78.7247 97.9877C78.7247 92.0496 74.4462 87.2815 69.304 87.6915C64.926 88.0417 61.4156 92.1968 61.137 97.3151C61.0742 98.4425 61.1694 99.5732 61.4196 100.674C62.3827 105.088 62.8459 109.597 62.8007 114.115V127.316C62.8007 128.272 63.4614 129.048 64.2773 129.048H75.5645C76.3605 129.048 77.0451 128.272 77.0451 127.316V113.343C77.011 109.105 77.4678 104.878 78.4063 100.746C78.6185 99.8419 78.7253 98.9163 78.7247 97.9877Z" fill="#FAFAFA"/>
<path d="M159.765 91.1737C160.111 91.1748 160.449 91.074 160.737 90.884C161.025 90.6939 161.251 90.423 161.386 90.1052C161.521 89.7874 161.56 89.4368 161.496 89.0974C161.433 88.7579 161.271 88.4446 161.031 88.1967C160.235 87.3768 158.93 86.7081 156.852 86.7081C154.774 86.7081 153.485 87.3768 152.677 88.1967C152.437 88.4443 152.275 88.7573 152.212 89.0964C152.148 89.4355 152.186 89.7858 152.321 90.1034C152.456 90.421 152.681 90.692 152.969 90.8823C153.256 91.0727 153.594 91.174 153.939 91.1737H159.765Z" fill="#F5F5F5"/>
<path d="M165.612 90.5214C165.832 90.519 166.047 90.452 166.229 90.3288C166.412 90.2056 166.554 90.0317 166.639 89.8284C166.724 89.6251 166.747 89.4014 166.706 89.1851C166.665 88.9687 166.561 88.7691 166.408 88.611C165.89 88.0817 165.059 87.6558 163.725 87.6558C162.392 87.6558 161.56 88.0817 161.043 88.611C160.889 88.7691 160.786 88.9687 160.745 89.1851C160.704 89.4014 160.727 89.6251 160.812 89.8284C160.896 90.0317 161.039 90.2056 161.221 90.3288C161.404 90.452 161.619 90.519 161.839 90.5214H165.612Z" fill="#F5F5F5"/>
<path d="M150.842 90.0156C150.842 90.0156 151.069 92.336 159.789 92.336C168.509 92.336 168.74 90.0156 168.74 90.0156H150.842Z" fill="#F0F0F0"/>
<path d="M141.593 86.1114C141.518 86.1135 141.444 86.1215 141.37 86.1353V85.3393C141.371 85.2564 141.355 85.1742 141.323 85.0974C141.292 85.0207 141.246 84.9509 141.187 84.8921C141.129 84.8333 141.059 84.7866 140.983 84.7547C140.906 84.7229 140.824 84.7065 140.741 84.7065H137.362C137.195 84.7075 137.035 84.7747 136.917 84.8932C136.799 85.0118 136.733 85.1722 136.733 85.3393V92.3361H141.37V91.2058C141.444 91.2177 141.518 91.2257 141.593 91.2297C142.085 91.2287 142.558 91.0325 142.906 90.6842C143.254 90.3358 143.45 89.8637 143.452 89.371V87.9581C143.447 87.4676 143.25 86.9985 142.902 86.6527C142.554 86.307 142.083 86.1125 141.593 86.1114ZM142.656 89.371C142.654 89.6526 142.542 89.9222 142.343 90.1213C142.144 90.3204 141.874 90.4327 141.593 90.4337C141.518 90.4338 141.443 90.4258 141.37 90.4098V86.9313C141.443 86.9153 141.518 86.9073 141.593 86.9074C141.874 86.9085 142.144 87.0208 142.343 87.2198C142.542 87.4189 142.654 87.6886 142.656 87.9701V89.371Z" fill="#E6E6E6"/>
<path d="M145.406 92.3359H128.125V130.305H145.406V92.3359Z" fill="#E6E6E6"/>
<path d="M145.402 130.305H175.802V92.3361H145.402V130.305Z" fill="#F5F5F5"/>
<path d="M174.209 130.305V93.9279H146.994V130.305H174.209Z" fill="#E6E6E6"/>
<path d="M153.867 130.305V93.9279H146.997V130.305H153.867Z" fill="#E0E0E0"/>
<path d="M175.073 112.913V111.321H146.998V112.913H175.073Z" fill="#F5F5F5"/>
<path d="M156.148 111.32H150.178L151.949 98.2421H156.148V111.32Z" fill="#E6E6E6"/>
<path d="M164.904 111.321H153.597L151.491 96.0138H162.799L164.904 111.321Z" fill="#F0F0F0"/>
<path d="M166.416 111.321H154.647L152.542 96.0138H164.31L166.416 111.321Z" fill="#F5F5F5"/>
<path d="M155.686 110.115L153.915 97.2194H163.268L165.043 110.115H155.686Z" fill="white"/>
<path d="M158.006 105.963L157.417 101.693C157.395 101.524 157.409 101.351 157.459 101.188C157.509 101.025 157.593 100.874 157.707 100.746C157.82 100.618 157.959 100.516 158.115 100.447C158.271 100.377 158.44 100.342 158.611 100.344H159.757C160.047 100.341 160.328 100.443 160.547 100.632C160.767 100.821 160.911 101.084 160.951 101.371L161.536 105.637C161.559 105.807 161.545 105.979 161.495 106.143C161.446 106.307 161.361 106.458 161.248 106.586C161.135 106.715 160.995 106.817 160.839 106.887C160.683 106.957 160.513 106.992 160.342 106.99H159.2C158.91 106.993 158.629 106.891 158.41 106.702C158.19 106.513 158.046 106.25 158.006 105.963Z" fill="#F5F5F5"/>
<path d="M99.5001 148.279C142.119 148.279 176.668 146.262 176.668 143.773C176.668 141.285 142.119 139.268 99.5001 139.268C56.8812 139.268 22.3318 141.285 22.3318 143.773C22.3318 146.262 56.8812 148.279 99.5001 148.279Z" fill="#F5F5F5"/>
<path d="M64.9988 57.9521C66.6516 47.7697 59.737 38.1754 49.5547 36.5226C39.3723 34.8697 29.7779 41.7843 28.1251 51.9667C26.4723 62.1491 33.3868 71.7434 43.5692 73.3962C53.7516 75.0491 63.3459 68.1345 64.9988 57.9521Z" fill="#64629D"/>
<path opacity="0.7" d="M64.9988 57.9521C66.6516 47.7697 59.737 38.1754 49.5547 36.5226C39.3723 34.8697 29.7779 41.7843 28.1251 51.9667C26.4723 62.1491 33.3868 71.7434 43.5692 73.3962C53.7516 75.0491 63.3459 68.1345 64.9988 57.9521Z" fill="#FAFAFA"/>
<path d="M36.4614 54.6419C36.4614 52.2937 36.8846 50.65 37.731 49.7107C38.5775 48.7714 39.8656 48.3018 41.5956 48.3018C42.2917 48.2809 42.9858 48.3847 43.6453 48.6082C44.131 48.7826 44.5764 49.0534 44.9547 49.4042C45.271 49.7068 45.5394 50.0557 45.7507 50.439C45.9581 50.8412 46.1145 51.2677 46.2164 51.7086C46.4499 52.6526 46.5662 53.6217 46.5627 54.5941C46.5627 56.8336 46.1832 58.4746 45.4244 59.5174C44.6655 60.5602 43.3588 61.0802 41.5041 61.0776C40.6354 61.1145 39.7704 60.944 38.9808 60.5801C38.3285 60.2469 37.7785 59.7435 37.3888 59.1234C37.045 58.5473 36.809 57.9134 36.6923 57.2528C36.5271 56.3926 36.4497 55.5178 36.4614 54.6419ZM39.8683 54.6419C39.8683 56.2153 40.001 57.2899 40.2663 57.8657C40.3557 58.1129 40.5173 58.3274 40.7303 58.4814C40.9432 58.6355 41.1976 58.7219 41.4603 58.7294C41.7992 58.7317 42.1254 58.6001 42.3677 58.3632C42.6624 58.0387 42.8585 57.637 42.9329 57.205C43.0756 56.3893 43.1356 55.5612 43.112 54.7334C43.112 53.0884 42.9793 51.9846 42.714 51.4221C42.6154 51.1713 42.4433 50.9562 42.2203 50.8049C41.9973 50.6537 41.7337 50.5733 41.4643 50.5743C41.1933 50.5699 40.9279 50.6515 40.7062 50.8074C40.4845 50.9633 40.318 51.1855 40.2305 51.442C39.989 52.0231 39.8683 53.0937 39.8683 54.6538V54.6419Z" fill="#FAFAFA"/>
<path d="M55.7639 48.3014V60.8941H52.2894V52.6555C51.7785 53.0511 51.2323 53.3988 50.6576 53.6943C50.0167 54.0018 49.351 54.2548 48.6676 54.4505V51.6366C49.65 51.3535 50.5725 50.8936 51.3899 50.2795C52.0381 49.75 52.5579 49.0805 52.9103 48.3213L55.7639 48.3014Z" fill="#FAFAFA"/>
<path d="M102.09 59.2429C104.459 49.2031 98.2415 39.1433 88.2017 36.7737C78.1619 34.4041 68.1021 40.622 65.7325 50.6618C63.3629 60.7016 69.5808 70.7614 79.6206 73.131C89.6604 75.5006 99.7202 69.2827 102.09 59.2429Z" fill="#64629D"/>
<path opacity="0.7" d="M102.09 59.2429C104.459 49.2031 98.2415 39.1433 88.2017 36.7737C78.1619 34.4041 68.1021 40.622 65.7325 50.6618C63.3629 60.7016 69.5808 70.7614 79.6206 73.131C89.6604 75.5006 99.7202 69.2827 102.09 59.2429Z" fill="#FAFAFA"/>
<path d="M73.0449 54.6419C73.0449 52.2937 73.4681 50.65 74.3145 49.7107C75.1609 48.7714 76.4491 48.3018 78.1791 48.3018C78.8751 48.2809 79.5693 48.3847 80.2288 48.6082C80.7137 48.7817 81.158 49.0526 81.5342 49.4042C81.8515 49.7059 82.12 50.055 82.3302 50.439C82.5376 50.8412 82.694 51.2677 82.7959 51.7086C83.0294 52.6526 83.1457 53.6217 83.1421 54.5941C83.1421 56.8336 82.7627 58.4746 82.0039 59.5174C81.245 60.5602 79.9382 61.0802 78.0836 61.0776C77.2148 61.115 76.3497 60.9444 75.5602 60.5801C74.908 60.2469 74.3579 59.7435 73.9682 59.1234C73.6245 58.5473 73.3885 57.9134 73.2717 57.2528C73.1079 56.3924 73.0319 55.5176 73.0449 54.6419ZM76.4518 54.6419C76.4518 56.2153 76.5844 57.2899 76.8498 57.8657C76.9391 58.1129 77.1008 58.3274 77.3137 58.4814C77.5267 58.6355 77.7811 58.7219 78.0438 58.7294C78.2111 58.7309 78.377 58.6993 78.532 58.6364C78.6871 58.5736 78.8282 58.4807 78.9472 58.3632C79.245 58.0408 79.4415 57.6381 79.5124 57.205C79.659 56.3897 79.7203 55.5614 79.6955 54.7334C79.6955 53.0884 79.5562 51.9846 79.2776 51.4221C79.1787 51.1707 79.006 50.9551 78.7822 50.8038C78.5584 50.6525 78.294 50.5725 78.0239 50.5743C77.7536 50.5708 77.4891 50.6528 77.2682 50.8086C77.0473 50.9644 76.8813 51.1861 76.794 51.442C76.5751 52.027 76.4518 53.0937 76.4518 54.6538V54.6419Z" fill="#FAFAFA"/>
<path d="M94.6162 60.8943H84.308C84.4316 59.865 84.8016 58.8806 85.3866 58.0247C85.9836 57.1306 87.106 56.0692 88.7537 54.8407C89.4688 54.3597 90.1178 53.787 90.684 53.1373C90.9385 52.8241 91.0863 52.4379 91.1059 52.0348C91.1108 51.8548 91.0779 51.6757 91.0093 51.5091C90.9408 51.3425 90.8381 51.1922 90.7079 51.0677C90.4158 50.8059 90.0374 50.6611 89.6452 50.6611C89.253 50.6611 88.8746 50.8059 88.5826 51.0677C88.2478 51.4842 88.0516 51.9949 88.0214 52.5284L84.5827 52.2498C84.6603 51.4491 84.9145 50.6757 85.3269 49.9851C85.7011 49.4293 86.2296 48.995 86.8473 48.7354C87.7153 48.4105 88.6396 48.2629 89.5656 48.3016C90.5228 48.2574 91.4798 48.3924 92.3874 48.6996C93.0356 48.9497 93.5914 49.3929 93.9794 49.9692C94.3636 50.5345 94.565 51.2041 94.5565 51.8876C94.5527 52.6559 94.3229 53.406 93.8959 54.0447C93.2457 54.9387 92.4361 55.7051 91.5079 56.3054C90.8153 56.783 90.3537 57.1173 90.1228 57.3083C89.892 57.4994 89.6174 57.7501 89.299 58.0606H94.664L94.6162 60.8943Z" fill="#FAFAFA"/>
<path d="M120.912 62.7475C131.215 62.2292 139.147 53.4571 138.628 43.1545C138.11 32.8519 129.338 24.9201 119.035 25.4384C108.733 25.9567 100.801 34.7288 101.319 45.0314C101.838 55.3341 110.61 63.2658 120.912 62.7475Z" fill="#64629D"/>
<path opacity="0.7" d="M120.912 62.7475C131.215 62.2292 139.147 53.4571 138.628 43.1545C138.11 32.8519 129.338 24.9201 119.035 25.4384C108.733 25.9567 100.801 34.7288 101.319 45.0314C101.838 55.3341 110.61 63.2658 120.912 62.7475Z" fill="#FAFAFA"/>
<path d="M110.434 47.6886C109.54 45.5156 109.305 43.8347 109.729 42.646C110.154 41.4573 111.166 40.5286 112.766 39.86C113.402 39.5756 114.085 39.4084 114.78 39.3665C115.296 39.3409 115.811 39.4236 116.292 39.6092C116.701 39.7674 117.082 39.9875 117.423 40.262C117.769 40.5542 118.078 40.8885 118.342 41.257C118.916 42.0409 119.392 42.8924 119.759 43.7922C120.616 45.8645 120.891 47.5268 120.583 48.7792C120.275 50.0315 119.266 51.0186 117.554 51.7403C116.764 52.102 115.9 52.2737 115.031 52.2418C114.305 52.1743 113.611 51.9162 113.017 51.4935C112.482 51.0918 112.023 50.597 111.664 50.0329C111.175 49.2953 110.763 48.5098 110.434 47.6886ZM113.59 46.3991C114.187 47.8558 114.728 48.7871 115.202 49.2209C115.381 49.4172 115.615 49.5546 115.874 49.615C116.132 49.6754 116.403 49.6559 116.651 49.5592C116.807 49.4972 116.949 49.4047 117.07 49.2872C117.19 49.1697 117.286 49.0295 117.351 48.8747C117.502 48.463 117.53 48.0163 117.431 47.5891C117.256 46.7791 116.997 45.9895 116.659 45.233C116.03 43.7153 115.481 42.7481 115.011 42.3316C114.824 42.1373 114.582 42.0043 114.318 41.9503C114.053 41.8963 113.779 41.9238 113.53 42.0291C113.282 42.1297 113.071 42.3061 112.928 42.5333C112.785 42.7605 112.717 43.0269 112.734 43.2947C112.713 43.9236 112.998 44.9584 113.59 46.3991Z" fill="#FAFAFA"/>
<path d="M123.19 39.6688L119.966 40.3653C119.806 39.4028 119.995 38.4147 120.499 37.5793C121.001 36.7833 121.9 36.12 123.198 35.5893C124.69 34.9724 125.884 34.7933 126.78 35.0879C127.199 35.2066 127.585 35.4208 127.909 35.7135C128.232 36.0062 128.483 36.3696 128.642 36.7754C128.847 37.2507 128.898 37.7779 128.79 38.2838C128.652 38.8587 128.379 39.3923 127.994 39.84C128.38 39.7704 128.774 39.7584 129.164 39.8042C129.628 39.8758 130.065 40.0695 130.429 40.3653C130.824 40.6951 131.127 41.1215 131.309 41.6031C131.584 42.2769 131.676 43.0116 131.576 43.7324C131.48 44.4867 131.158 45.1944 130.652 45.7622C129.988 46.4602 129.17 46.9943 128.264 47.3224C127.442 47.6991 126.556 47.9178 125.653 47.9671C124.984 47.9786 124.323 47.8212 123.731 47.5094C123.1 47.1543 122.548 46.675 122.107 46.1005L125.108 44.3732C125.366 44.8414 125.758 45.2213 126.234 45.4637C126.61 45.602 127.025 45.5862 127.389 45.4199C127.591 45.3415 127.774 45.2196 127.925 45.0628C128.076 44.9061 128.19 44.7182 128.26 44.5125C128.414 44.0452 128.383 43.5365 128.173 43.0916C128.015 42.6318 127.686 42.2509 127.253 42.029C127.051 41.9376 126.831 41.8903 126.608 41.8903C126.386 41.8903 126.166 41.9376 125.964 42.029C125.621 42.1906 125.301 42.3966 125.013 42.6419L124.24 40.3056C124.386 40.2707 124.53 40.2268 124.67 40.1743C125.059 40.0237 125.374 39.7265 125.546 39.3465C125.63 39.1735 125.676 38.9845 125.681 38.7923C125.685 38.6 125.649 38.409 125.574 38.2321C125.52 38.0758 125.434 37.9326 125.321 37.8113C125.209 37.69 125.073 37.5934 124.921 37.5276C124.762 37.4666 124.593 37.4386 124.423 37.4455C124.254 37.4523 124.087 37.4938 123.934 37.5674C123.764 37.6295 123.608 37.7249 123.476 37.8479C123.343 37.9709 123.236 38.1191 123.162 38.2838C123.023 38.7367 123.033 39.2219 123.19 39.6688Z" fill="#FAFAFA"/>
<path d="M176.797 59.2467C179.167 49.2069 172.949 39.1471 162.909 36.7775C152.869 34.4078 142.809 40.6258 140.44 50.6656C138.07 60.7054 144.288 70.7652 154.328 73.1348C164.368 75.5044 174.428 69.2865 176.797 59.2467Z" fill="#64629D"/>
<path opacity="0.7" d="M176.797 59.2467C179.167 49.2069 172.949 39.1471 162.909 36.7775C152.869 34.4078 142.809 40.6258 140.44 50.6656C138.07 60.7054 144.288 70.7652 154.328 73.1348C164.368 75.5044 174.428 69.2865 176.797 59.2467Z" fill="#FAFAFA"/>
<path d="M147.396 54.6419C147.396 52.2937 147.819 50.65 148.665 49.7107C149.512 48.7714 150.8 48.3018 152.53 48.3018C153.226 48.2809 153.92 48.3847 154.579 48.6082C155.064 48.7817 155.509 49.0526 155.885 49.4042C156.202 49.7059 156.471 50.055 156.681 50.439C156.888 50.8412 157.045 51.2677 157.147 51.7086C157.38 52.6526 157.496 53.6217 157.493 54.5941C157.493 56.8336 157.113 58.4746 156.355 59.5174C155.596 60.5602 154.289 61.0829 152.434 61.0855C151.566 61.123 150.7 60.9524 149.911 60.588C149.259 60.2548 148.709 59.7515 148.319 59.1313C147.975 58.5552 147.739 57.9214 147.622 57.2607C147.458 56.3978 147.382 55.5203 147.396 54.6419ZM150.802 54.6419C150.802 56.2153 150.942 57.2899 151.22 57.8657C151.31 58.1129 151.471 58.3274 151.684 58.4814C151.897 58.6355 152.152 58.7219 152.414 58.7294C152.582 58.7309 152.748 58.6993 152.903 58.6364C153.058 58.5736 153.199 58.4807 153.318 58.3632C153.616 58.0408 153.812 57.6381 153.883 57.205C154.03 56.3897 154.091 55.5614 154.066 54.7334C154.066 53.0884 153.927 51.9846 153.648 51.4221C153.549 51.1707 153.377 50.9551 153.153 50.8038C152.929 50.6525 152.665 50.5725 152.394 50.5743C152.124 50.5708 151.86 50.6528 151.639 50.8086C151.418 50.9644 151.252 51.1861 151.165 51.442C150.926 52.0231 150.805 53.0937 150.802 54.6538V54.6419Z" fill="#FAFAFA"/>
<path d="M164.816 58.5658H158.56V55.74L164.816 48.3014H167.809V55.8992H169.361V58.5658H167.809V60.8941H164.816V58.5658ZM164.816 55.8992V52.0107L161.509 55.8992H164.816Z" fill="#FAFAFA"/>
<path d="M158.624 75.3616C158.096 75.3616 157.59 75.152 157.217 74.7788C156.843 74.4056 156.634 73.8994 156.634 73.3716C156.634 72.8438 156.843 72.3377 157.217 71.9645C157.59 71.5913 158.096 71.3816 158.624 71.3816C161.924 71.3824 165.151 70.4043 167.896 68.5711C170.641 66.7379 172.781 64.1318 174.044 61.0825C175.308 58.0332 175.639 54.6777 174.996 51.4402C174.352 48.2028 172.763 45.2289 170.429 42.8946C168.096 40.5603 165.122 38.9705 161.885 38.3263C158.648 37.682 155.292 38.0123 152.242 39.2753C149.193 40.5382 146.586 42.6772 144.752 45.4216C142.918 48.1661 141.94 51.3927 141.94 54.6935C141.94 60.175 139.762 65.432 135.886 69.3081C132.01 73.1841 126.753 75.3616 121.271 75.3616C115.79 75.3616 110.533 73.1841 106.657 69.3081C102.781 65.432 100.603 60.175 100.603 54.6935C100.603 50.2675 98.845 46.0228 95.7154 42.8932C92.5858 39.7635 88.3411 38.0053 83.9151 38.0053C79.4891 38.0053 75.2445 39.7635 72.1148 42.8932C68.9852 46.0228 67.227 50.2675 67.227 54.6935C67.227 58.7816 66.0146 62.7779 63.7432 66.1769C61.4718 69.5759 58.2434 72.225 54.4664 73.7891C50.6893 75.3532 46.5332 75.762 42.5238 74.9639C38.5143 74.1658 34.8316 72.1965 31.9414 69.3052C29.0513 66.414 27.0834 62.7305 26.2869 58.7207C25.4903 54.711 25.9007 50.5551 27.4663 46.7786C29.0318 43.0021 31.6821 39.7748 35.082 37.5047C38.4819 35.2346 42.4787 34.0238 46.5668 34.0253C47.0946 34.0253 47.6007 34.235 47.9739 34.6082C48.3471 34.9814 48.5568 35.4876 48.5568 36.0153C48.5568 36.5431 48.3471 37.0493 47.9739 37.4225C47.6007 37.7957 47.0946 38.0053 46.5668 38.0053C43.2662 38.0053 40.0397 38.9841 37.2954 40.8178C34.551 42.6515 32.4121 45.2578 31.149 48.3072C29.8859 51.3566 29.5554 54.712 30.1993 57.9492C30.8432 61.1864 32.4326 64.1599 34.7665 66.4938C37.1004 68.8276 40.0739 70.417 43.3111 71.061C46.5483 71.7049 49.9037 71.3744 52.9531 70.1113C56.0024 68.8482 58.6088 66.7093 60.4425 63.9649C62.2762 61.2206 63.2549 57.9941 63.2549 54.6935C63.2549 49.2119 65.4325 43.9549 69.3085 40.0789C73.1845 36.2029 78.4415 34.0253 83.9231 34.0253C89.4046 34.0253 94.6616 36.2029 98.5377 40.0789C102.414 43.9549 104.591 49.2119 104.591 54.6935C104.591 56.885 105.023 59.055 105.862 61.0797C106.7 63.1044 107.929 64.9441 109.479 66.4938C111.029 68.0434 112.868 69.2726 114.893 70.1113C116.918 70.95 119.088 71.3816 121.279 71.3816C123.471 71.3816 125.641 70.95 127.666 70.1113C129.69 69.2726 131.53 68.0434 133.08 66.4938C134.629 64.9441 135.859 63.1044 136.697 61.0797C137.536 59.055 137.967 56.885 137.967 54.6935C137.967 50.6055 139.18 46.6094 141.451 43.2105C143.722 39.8115 146.95 37.1624 150.727 35.5982C154.504 34.034 158.66 33.625 162.669 34.4228C166.679 35.2206 170.361 37.1894 173.252 40.0803C176.142 42.9712 178.11 46.6543 178.907 50.6638C179.704 54.6733 179.294 58.829 177.729 62.6056C176.164 66.3821 173.515 69.6098 170.115 71.8803C166.716 74.1509 162.72 75.3624 158.632 75.3616H158.624Z" fill="#64629D"/>
<path d="M138.412 68.5638L138.106 68.313C139.012 67.1922 139.805 65.9843 140.474 64.7072L140.828 64.8942C140.144 66.1931 139.335 67.4221 138.412 68.5638Z" fill="#64629D"/>
<path d="M129.418 75.1946L129.271 74.8244C131.774 73.827 134.068 72.3705 136.037 70.53L136.307 70.8206C134.303 72.6948 131.967 74.1783 129.418 75.1946Z" fill="#64629D"/>
<path d="M75.6915 140.788H78.6129L78.9034 134.014H75.9821L75.6915 140.788Z" fill="#FFC3BD"/>
<path opacity="0.2" d="M78.9043 134.018L78.7571 137.509H75.8318L75.979 134.018H78.9043Z" fill="black"/>
<path d="M54.2597 138.492L57.1173 139.109L59.9869 132.804L57.1293 132.184L54.2597 138.492Z" fill="#FFC3BD"/>
<path opacity="0.2" d="M57.1256 132.188L59.9872 132.805L58.5067 136.056L55.649 135.439L57.1256 132.188Z" fill="black"/>
<path d="M69.4394 45.4715C68.4365 47.2347 67.4255 49.0535 66.4584 50.8644C65.4913 52.6753 64.544 54.4982 63.7401 56.313C63.5291 56.7707 63.3421 57.2205 63.167 57.6702C63.167 57.714 63.167 57.6702 63.167 57.6702C63.167 57.6702 63.167 57.6981 63.167 57.7299C63.1524 57.8449 63.1524 57.9612 63.167 58.0762C63.2395 58.4529 63.3585 58.8192 63.5212 59.1667C63.7059 59.5849 63.9131 59.9928 64.1421 60.3886C65.1771 62.1042 66.3273 63.7478 67.5848 65.3078L66.0803 66.8998C64.2983 65.5872 62.6931 64.0502 61.3043 62.3268C60.4969 61.3525 59.8726 60.2401 59.4616 59.0433C59.3391 58.6558 59.2643 58.2549 59.2387 57.8493C59.2171 57.6083 59.2171 57.3659 59.2387 57.125C59.2522 56.9912 59.2734 56.8583 59.3024 56.727C59.3024 56.6633 59.3342 56.5956 59.3501 56.528L59.4019 56.3568C59.577 55.8235 59.7481 55.2822 59.9432 54.7648C60.7066 52.7375 61.5781 50.7527 62.554 48.8187C63.5172 46.9003 64.5241 45.0457 65.6465 43.191L69.4394 45.4715Z" fill="#FFC3BD"/>
<path d="M67.0194 64.7981L69.0731 65.4747L67.3457 68.3801C67.3457 68.3801 65.8413 67.6995 65.5388 66.3145L67.0194 64.7981Z" fill="#FFC3BD"/>
<path d="M71.871 66.5972L69.8731 68.834L67.3458 68.3803L69.0731 65.4749L71.871 66.5972Z" fill="#FFC3BD"/>
<path d="M79.2533 29.5953C79.301 29.8262 79.4602 29.9933 79.6115 29.9575C79.7627 29.9217 79.8463 29.7147 79.7985 29.4839C79.7508 29.2531 79.5916 29.0859 79.4403 29.1217C79.2891 29.1575 79.2015 29.3645 79.2533 29.5953Z" fill="#263238"/>
<path d="M79.4411 29.9929C79.86 30.6428 80.3662 31.232 80.9455 31.7441C80.8107 31.8892 80.6456 32.0028 80.462 32.0771C80.2784 32.1514 80.0807 32.1844 79.8829 32.174L79.4411 29.9929Z" fill="#ED847E"/>
<path d="M78.1482 28.4845C78.1126 28.4832 78.0787 28.4691 78.0527 28.4447C78.0272 28.4187 78.0129 28.3837 78.0129 28.3472C78.0129 28.3107 78.0272 28.2757 78.0527 28.2497C78.2001 28.0828 78.3856 27.954 78.5935 27.8743C78.8014 27.7946 79.0255 27.7664 79.2467 27.792C79.2831 27.7979 79.3157 27.8179 79.3373 27.8478C79.3589 27.8776 79.3679 27.9148 79.3621 27.9512C79.3553 27.9871 79.335 28.0191 79.3054 28.0405C79.2758 28.062 79.2392 28.0713 79.2029 28.0666C79.0295 28.05 78.8545 28.0749 78.6926 28.1393C78.5306 28.2037 78.3863 28.3056 78.2716 28.4368C78.2571 28.4549 78.238 28.4689 78.2164 28.4773C78.1947 28.4857 78.1712 28.4882 78.1482 28.4845Z" fill="#263238"/>
<path d="M72.6713 32.8428C73.0693 34.984 73.5071 38.9043 72.0106 40.3292C72.0106 40.3292 72.5957 42.4983 76.5717 42.4983C80.9497 42.4983 78.6612 40.3292 78.6612 40.3292C76.2732 39.76 76.3369 37.9929 76.7508 36.3293L72.6713 32.8428Z" fill="#FFC3BD"/>
<path d="M71.4139 40.8109C71.0955 40.4129 70.7493 39.9154 71.4657 39.7642C72.2617 39.601 76.5879 39.4299 78.0804 39.7403C79.5729 40.0507 79.1471 40.8985 79.1471 40.8985L71.4139 40.8109Z" fill="white"/>
<path d="M58.2318 139.507C58.3498 139.549 58.4749 139.567 58.5999 139.56C58.7249 139.553 58.8474 139.521 58.9601 139.467C59.0037 139.427 59.0336 139.374 59.0458 139.317C59.0579 139.259 59.0516 139.199 59.0278 139.145C59.0149 139.1 58.9922 139.058 58.9612 139.023C58.9302 138.988 58.8917 138.96 58.8487 138.942C58.4507 138.751 57.5472 139.121 57.5074 139.137C57.4951 139.142 57.4845 139.151 57.4768 139.162C57.4691 139.174 57.4645 139.187 57.4636 139.2C57.4641 139.213 57.4681 139.226 57.4751 139.237C57.482 139.249 57.4918 139.258 57.5034 139.264C57.737 139.37 57.9811 139.452 58.2318 139.507ZM58.7054 139.037L58.789 139.065C58.814 139.076 58.8363 139.092 58.8542 139.113C58.8721 139.134 58.8852 139.158 58.8924 139.184C58.9322 139.308 58.8924 139.348 58.8686 139.359C58.7133 139.495 58.1283 139.359 57.7183 139.204C58.0312 139.077 58.3681 139.02 58.7054 139.037Z" fill="#64629D"/>
<path d="M57.5191 139.268H57.5509C57.8852 139.173 58.5897 138.667 58.5976 138.337C58.5988 138.285 58.582 138.235 58.5501 138.194C58.5181 138.153 58.473 138.125 58.4225 138.114C58.3727 138.096 58.3196 138.089 58.2667 138.093C58.2139 138.097 58.1625 138.112 58.1161 138.138C57.7181 138.337 57.4793 139.145 57.4673 139.181C57.4614 139.191 57.4583 139.202 57.4583 139.214C57.4583 139.226 57.4614 139.238 57.4673 139.248C57.4816 139.261 57.5 139.268 57.5191 139.268ZM58.3469 138.233H58.3748C58.4623 138.261 58.4623 138.305 58.4623 138.321C58.4623 138.516 57.9887 138.91 57.6663 139.073C57.7581 138.751 57.9438 138.465 58.1996 138.249C58.246 138.229 58.2973 138.224 58.3469 138.233Z" fill="#64629D"/>
<path d="M79.787 140.936C80.1651 140.936 80.5273 140.884 80.6467 140.717C80.6778 140.672 80.6946 140.62 80.6946 140.565C80.6946 140.511 80.6778 140.458 80.6467 140.414C80.6223 140.373 80.5901 140.338 80.5518 140.31C80.5135 140.282 80.47 140.262 80.4238 140.251C79.9382 140.12 78.9154 140.701 78.8756 140.729C78.8623 140.735 78.8515 140.745 78.845 140.758C78.8385 140.771 78.8366 140.786 78.8397 140.8C78.8426 140.814 78.8494 140.827 78.8593 140.836C78.8692 140.846 78.8817 140.853 78.8955 140.856C79.1899 140.908 79.4881 140.934 79.787 140.936ZM80.2526 140.37C80.2962 140.364 80.3404 140.364 80.384 140.37C80.4122 140.375 80.4389 140.387 80.4623 140.403C80.4857 140.42 80.5051 140.441 80.5193 140.466C80.571 140.553 80.5511 140.597 80.5193 140.621C80.384 140.808 79.6437 140.812 79.0984 140.737C79.4557 140.541 79.8478 140.416 80.2526 140.37Z" fill="#64629D"/>
<path d="M78.9039 140.856H78.9318C79.286 140.697 79.9865 140.06 79.9308 139.733C79.9308 139.654 79.8631 139.558 79.6761 139.538C79.6051 139.53 79.5332 139.537 79.4649 139.557C79.3965 139.578 79.3329 139.612 79.2781 139.658C78.9079 139.964 78.8283 140.752 78.8243 140.784C78.8228 140.796 78.8246 140.809 78.8295 140.82C78.8344 140.831 78.8422 140.841 78.8522 140.848C78.8679 140.857 78.8863 140.859 78.9039 140.856ZM79.6203 139.662H79.6601C79.7835 139.662 79.7915 139.722 79.7955 139.737C79.8273 139.936 79.3537 140.434 78.9995 140.649C79.0377 140.316 79.1765 140.002 79.3975 139.749C79.462 139.701 79.5397 139.673 79.6203 139.67V139.662Z" fill="#64629D"/>
<path d="M57.3921 138.822L54.1802 138.13C54.1238 138.117 54.0645 138.124 54.0129 138.15C53.9612 138.176 53.9204 138.22 53.8976 138.273L52.7832 140.689C52.7561 140.748 52.7427 140.812 52.744 140.876C52.7453 140.941 52.7614 141.005 52.7909 141.062C52.8204 141.12 52.8627 141.17 52.9145 141.208C52.9662 141.247 53.0262 141.274 53.0897 141.286C54.216 141.513 54.7732 141.564 56.1861 141.871C57.0538 142.058 59.0159 142.536 60.2139 142.794C61.4119 143.053 61.8258 141.903 61.3601 141.688C59.2627 140.729 58.3871 139.885 57.8179 139.101C57.7146 138.959 57.5632 138.86 57.3921 138.822Z" fill="#263238"/>
<path d="M78.5938 140.45H75.4098C75.3518 140.45 75.2955 140.47 75.25 140.506C75.2045 140.542 75.1725 140.593 75.1591 140.649L74.582 143.248C74.5682 143.311 74.5687 143.376 74.5836 143.438C74.5985 143.501 74.6273 143.559 74.6678 143.609C74.7084 143.658 74.7597 143.698 74.8179 143.725C74.8761 143.753 74.9397 143.766 75.0039 143.765C76.1541 143.765 77.8217 143.682 79.2664 143.682C80.9619 143.682 82.4226 143.773 84.4086 143.773C85.6026 143.773 85.9409 142.559 85.4394 142.448C83.1509 141.95 81.2843 141.895 79.3062 140.677C79.0947 140.536 78.8479 140.457 78.5938 140.45Z" fill="#263238"/>
<path d="M79.6445 41.0495C81.9131 40.8147 84.2613 40.5162 86.5339 40.158C88.7689 39.8416 90.9753 39.3492 93.1328 38.6854C93.3835 38.6018 93.6223 38.5103 93.8611 38.4147C94.0584 38.3354 94.2499 38.2423 94.4342 38.1361C94.872 37.8894 95.3536 37.5909 95.8232 37.2765C96.7705 36.6436 97.7336 35.975 98.6849 35.2865L104.46 31.1353L105.924 32.7711C104.301 34.5661 102.609 36.2695 100.83 37.9133C99.9386 38.7331 99.0311 39.5451 98.0441 40.3251C97.5545 40.7231 97.065 41.1211 96.4879 41.4833C96.1712 41.6994 95.8401 41.8936 95.4969 42.0644C95.1864 42.2117 94.876 42.351 94.5695 42.4624C93.3828 42.9425 92.1647 43.3414 90.9239 43.6564C89.7299 43.9828 88.508 44.2415 87.3021 44.4723C84.8873 44.9351 82.4493 45.2672 79.9988 45.4673L79.6445 41.0495Z" fill="#FFC3BD"/>
<path d="M66.7768 40.994C64.0345 41.6228 59.4337 55.2304 59.4337 55.2304L63.9112 56.7189C63.9112 56.7189 68.4802 49.9529 70.0324 46.6854C71.6403 43.2626 69.5787 40.3492 66.7768 40.994Z" fill="#263238"/>
<path d="M64.6916 56.046C64.6916 56.046 60.3136 55.2102 59.3067 54.5894C58.9564 55.0948 58.5107 56.9376 58.8211 57.4788C59.1316 58.0201 63.1991 58.8082 63.7444 58.4858C64.2897 58.1634 64.6916 56.046 64.6916 56.046Z" fill="#263238"/>
<path opacity="0.2" d="M64.6916 56.046C64.6916 56.046 60.3136 55.2102 59.3067 54.5894C58.9564 55.0948 58.5107 56.9376 58.8211 57.4788C59.1316 58.0201 63.1991 58.8082 63.7444 58.4858C64.2897 58.1634 64.6916 56.046 64.6916 56.046Z" fill="#FAFAFA"/>
<path d="M83.1597 41.1412C83.1597 41.1412 86.2681 44.6555 83.3308 66.4142H67.6934C67.586 64.0262 69.0944 52.3011 66.778 40.9899C68.5065 40.6571 70.2547 40.4364 72.0117 40.3292C74.2267 40.2018 76.4473 40.2018 78.6623 40.3292C80.1802 40.4827 81.6839 40.7541 83.1597 41.1412Z" fill="#263238"/>
<path d="M77.6104 45.7939C80.4163 48.6873 94.4816 42.9163 94.4816 42.9163L92.2249 38.5742C92.2249 38.5742 83.4291 40.401 79.8153 40.3293C75.3577 40.2378 75.489 43.5929 77.6104 45.7939Z" fill="#263238"/>
<path d="M91.5402 38.4904C91.5402 38.4904 93.781 42.355 93.9601 43.5131C94.577 43.4495 96.2486 42.5699 96.4675 41.9888C96.6864 41.4077 94.6088 37.8178 94.0038 37.6108C93.3989 37.4038 91.5402 38.4904 91.5402 38.4904Z" fill="#263238"/>
<path opacity="0.2" d="M91.5402 38.4904C91.5402 38.4904 93.781 42.355 93.9601 43.5131C94.577 43.4495 96.2486 42.5699 96.4675 41.9888C96.6864 41.4077 94.6088 37.8178 94.0038 37.6108C93.3989 37.4038 91.5402 38.4904 91.5402 38.4904Z" fill="#FAFAFA"/>
<path d="M104.368 31.1753L106.358 28.8311L108.499 31.2191C108.499 31.2191 107.178 33.436 105.08 33.0857L104.368 31.1753Z" fill="#FFC3BD"/>
<path d="M109.155 27.7245L111.085 28.831L108.518 31.207L106.373 28.831L109.155 27.7245Z" fill="#FFC3BD"/>
<path d="M71.4455 30.6696C72.1977 33.4755 72.4962 35.1511 74.2315 36.3172C76.8344 38.0724 80.0741 36.0585 80.1736 33.0894C80.2652 30.4149 79.0234 26.2796 76.0145 25.7145C75.3513 25.5844 74.6658 25.6265 74.0234 25.8366C73.381 26.0468 72.8031 26.418 72.345 26.9149C71.8868 27.4118 71.5635 28.0178 71.4061 28.6751C71.2486 29.3323 71.2622 30.019 71.4455 30.6696Z" fill="#FFC3BD"/>
<path d="M77.5866 20.0113C79.5766 24.1983 69.2485 21.8779 69.1769 25.6788C69.1769 25.838 69.1769 25.9813 69.1769 26.1206C68.8824 25.846 68.2893 25.5435 67.2665 25.9574C67.8663 26.1839 68.4096 26.5384 68.8585 26.9962C68.4605 27.3345 67.8555 27.5136 68.1142 29.1335C68.2376 29.9295 69.0296 31.1235 70.0604 32.1821C70.5102 32.9025 71.9708 34.5383 71.943 34.9323C72.1663 34.9332 72.3874 34.8871 72.5917 34.797C72.6561 34.9462 72.6847 35.1084 72.6753 35.2706C73.2166 35.3741 73.6424 35.2985 73.6902 34.9244C74.132 34.9642 74.4504 34.8448 74.4663 34.4905C74.8882 34.5502 75.1787 34.4149 75.1588 33.9612C76.1618 33.412 76.5041 32.2538 76.6871 30.9603C76.8997 29.3235 77.7193 27.8263 78.9836 26.7654C81.0094 25.1455 81.8054 22.5903 77.5866 20.0113Z" fill="#263238"/>
<path d="M75.4728 30.5224C75.6668 31.2197 76.0867 31.8329 76.6668 32.2657C77.431 32.8308 77.9961 32.2657 77.9444 31.414C77.8966 30.618 77.4389 29.424 76.5991 29.1812C75.7594 28.9384 75.2539 29.6787 75.4728 30.5224Z" fill="#FFC3BD"/>
<path d="M77.7821 66.414C77.7821 66.414 74.4628 88.7538 72.644 97.1118C70.654 106.266 59.9796 135.67 59.9796 135.67L54.7459 134.536C54.7459 134.536 62.7338 107.022 63.872 97.9436C65.1058 88.0931 67.6928 66.3981 67.6928 66.3981L77.7821 66.414Z" fill="#64629D"/>
<path opacity="0.5" d="M77.7821 66.414C77.7821 66.414 74.4628 88.7538 72.644 97.1118C70.654 106.266 59.9796 135.67 59.9796 135.67L54.7459 134.536C54.7459 134.536 62.7338 107.022 63.872 97.9436C65.1058 88.0931 67.6928 66.3981 67.6928 66.3981L77.7821 66.414Z" fill="black"/>
<path opacity="0.3" d="M75.6839 74.374C71.8472 75.1262 72.2532 89.4343 72.7149 96.7934C73.8213 91.5915 75.4412 81.5818 76.5476 74.4775C76.2799 74.3456 75.9752 74.3091 75.6839 74.374Z" fill="black"/>
<path d="M83.3302 66.4138C83.3302 66.4138 83.7283 88.2759 83.4138 97.1911C83.0835 106.465 79.8318 136.832 79.8318 136.832H74.8927C74.8927 136.832 74.7096 107.006 74.4947 97.8995C74.2519 87.9495 73.0539 66.4138 73.0539 66.4138H83.3302Z" fill="#64629D"/>
<path opacity="0.5" d="M83.3302 66.4138C83.3302 66.4138 83.7283 88.2759 83.4138 97.1911C83.0835 106.465 79.8318 136.832 79.8318 136.832H74.8927C74.8927 136.832 74.7096 107.006 74.4947 97.8995C74.2519 87.9495 73.0539 66.4138 73.0539 66.4138H83.3302Z" fill="black"/>
<path opacity="0.2" d="M78.8042 133.274C78.7976 133.274 78.7911 133.272 78.7852 133.269C78.7793 133.266 78.7741 133.262 78.77 133.256C78.7658 133.251 78.7629 133.245 78.7612 133.239C78.7596 133.232 78.7593 133.225 78.7605 133.219C79.6321 124.821 81.6897 104.491 81.9445 97.1878C82.2111 89.7292 81.9723 73.0371 81.8887 68.0979C81.8887 68.0842 81.8942 68.0711 81.9039 68.0614C81.9136 68.0517 81.9268 68.0462 81.9405 68.0462C81.9531 68.0462 81.9653 68.0512 81.9742 68.0602C81.9832 68.0691 81.9882 68.0813 81.9882 68.094C82.0718 73.0331 82.3106 89.7292 82.044 97.1917C81.7853 104.499 79.7276 124.829 78.86 133.231C78.8595 133.237 78.8576 133.244 78.8545 133.25C78.8514 133.256 78.8471 133.261 78.8418 133.265C78.8366 133.269 78.8305 133.272 78.824 133.274C78.8176 133.275 78.8108 133.276 78.8042 133.274Z" fill="#FAFAFA"/>
<path d="M61.2325 133.939C61.2564 133.939 60.2574 135.829 60.2574 135.829L54.371 134.556L54.8645 132.784L61.2325 133.939Z" fill="#263238"/>
<path d="M80.794 134.858C80.8178 134.858 80.5154 136.916 80.5154 136.916H74.4936L74.3304 135.081L80.794 134.858Z" fill="#263238"/>
</svg>
