<svg width="68" height="19" viewBox="0 0 68 19" fill="none" xmlns="http://www.w3.org/2000/svg">
<path d="M6.272 8.832C6.856 8.832 7.36 8.76 7.784 8.616C8.208 8.464 8.556 8.26 8.828 8.004C9.1 7.74 9.3 7.432 9.428 7.08C9.556 6.728 9.62 6.344 9.62 5.928C9.62 5.104 9.344 4.464 8.792 4.008C8.248 3.552 7.416 3.324 6.296 3.324H4.424V8.832H6.272ZM14.708 18H11.456C10.848 18 10.408 17.768 10.136 17.304L6.824 11.964C6.688 11.756 6.536 11.604 6.368 11.508C6.208 11.412 5.968 11.364 5.648 11.364H4.424V18H0.824V0.587999H6.296C7.512 0.587999 8.552 0.715999 9.416 0.972C10.28 1.22 10.988 1.568 11.54 2.016C12.092 2.464 12.496 3 12.752 3.624C13.008 4.24 13.136 4.92 13.136 5.664C13.136 6.24 13.052 6.788 12.884 7.308C12.724 7.82 12.488 8.288 12.176 8.712C11.864 9.136 11.48 9.512 11.024 9.84C10.568 10.168 10.048 10.432 9.464 10.632C9.696 10.76 9.912 10.916 10.112 11.1C10.312 11.276 10.492 11.488 10.652 11.736L14.708 18ZM22.931 12.828C22.123 12.868 21.451 12.94 20.915 13.044C20.379 13.14 19.951 13.268 19.631 13.428C19.319 13.588 19.095 13.772 18.959 13.98C18.831 14.18 18.767 14.4 18.767 14.64C18.767 15.12 18.899 15.46 19.163 15.66C19.435 15.86 19.811 15.96 20.291 15.96C20.843 15.96 21.319 15.864 21.719 15.672C22.127 15.472 22.531 15.164 22.931 14.748V12.828ZM16.187 7.344C16.915 6.688 17.719 6.2 18.599 5.88C19.479 5.552 20.431 5.388 21.455 5.388C22.191 5.388 22.847 5.508 23.423 5.748C24.007 5.988 24.499 6.324 24.899 6.756C25.307 7.18 25.619 7.688 25.835 8.28C26.051 8.872 26.159 9.52 26.159 10.224V18H24.647C24.335 18 24.095 17.956 23.927 17.868C23.767 17.78 23.635 17.596 23.531 17.316L23.267 16.524C22.955 16.796 22.651 17.036 22.355 17.244C22.067 17.452 21.767 17.628 21.455 17.772C21.143 17.908 20.807 18.012 20.447 18.084C20.095 18.156 19.699 18.192 19.259 18.192C18.715 18.192 18.219 18.12 17.771 17.976C17.323 17.832 16.935 17.62 16.607 17.34C16.287 17.052 16.039 16.696 15.863 16.272C15.687 15.848 15.599 15.36 15.599 14.808C15.599 14.352 15.715 13.896 15.947 13.44C16.179 12.984 16.575 12.572 17.135 12.204C17.703 11.828 18.455 11.52 19.391 11.28C20.335 11.032 21.515 10.892 22.931 10.86V10.224C22.931 9.448 22.767 8.88 22.439 8.52C22.111 8.152 21.639 7.968 21.023 7.968C20.567 7.968 20.187 8.024 19.883 8.136C19.579 8.24 19.311 8.356 19.079 8.484C18.855 8.604 18.643 8.72 18.443 8.832C18.243 8.936 18.011 8.988 17.747 8.988C17.515 8.988 17.319 8.932 17.159 8.82C17.007 8.7 16.879 8.56 16.775 8.4L16.187 7.344ZM40.5476 5.628L35.6876 18H32.6876L27.8276 5.628H30.5756C30.8156 5.628 31.0156 5.684 31.1756 5.796C31.3356 5.908 31.4476 6.052 31.5116 6.228L33.5876 12.348C33.7236 12.764 33.8436 13.172 33.9476 13.572C34.0516 13.964 34.1436 14.36 34.2236 14.76C34.3116 14.36 34.4076 13.964 34.5116 13.572C34.6236 13.172 34.7516 12.764 34.8956 12.348L37.0436 6.228C37.0996 6.052 37.2076 5.908 37.3676 5.796C37.5276 5.684 37.7156 5.628 37.9316 5.628H40.5476ZM50.126 10.356C50.126 10.012 50.078 9.684 49.982 9.372C49.894 9.06 49.75 8.784 49.55 8.544C49.35 8.304 49.098 8.116 48.794 7.98C48.49 7.836 48.126 7.764 47.702 7.764C46.91 7.764 46.29 7.988 45.842 8.436C45.394 8.884 45.102 9.524 44.966 10.356H50.126ZM44.918 12.324C45.022 13.484 45.35 14.332 45.902 14.868C46.462 15.404 47.19 15.672 48.086 15.672C48.542 15.672 48.934 15.62 49.262 15.516C49.598 15.404 49.89 15.284 50.138 15.156C50.394 15.02 50.622 14.9 50.822 14.796C51.03 14.684 51.234 14.628 51.434 14.628C51.69 14.628 51.89 14.724 52.034 14.916L52.994 16.116C52.642 16.524 52.254 16.864 51.83 17.136C51.406 17.4 50.966 17.612 50.51 17.772C50.054 17.924 49.594 18.028 49.13 18.084C48.666 18.148 48.218 18.18 47.786 18.18C46.922 18.18 46.114 18.04 45.362 17.76C44.618 17.472 43.966 17.052 43.406 16.5C42.854 15.94 42.418 15.248 42.098 14.424C41.778 13.6 41.618 12.644 41.618 11.556C41.618 10.716 41.754 9.924 42.026 9.18C42.306 8.436 42.706 7.788 43.226 7.236C43.746 6.684 44.378 6.248 45.122 5.928C45.866 5.6 46.706 5.436 47.642 5.436C48.434 5.436 49.162 5.564 49.826 5.82C50.498 6.068 51.074 6.432 51.554 6.912C52.042 7.392 52.418 7.984 52.682 8.688C52.954 9.384 53.09 10.18 53.09 11.076C53.09 11.324 53.078 11.528 53.054 11.688C53.03 11.848 52.99 11.976 52.934 12.072C52.878 12.168 52.802 12.236 52.706 12.276C52.61 12.308 52.486 12.324 52.334 12.324H44.918ZM59.1772 0.107999V10.26H59.7292C59.9372 10.26 60.1012 10.232 60.2212 10.176C60.3412 10.112 60.4612 10 60.5812 9.84L63.3172 6.192C63.4532 6.008 63.6052 5.868 63.7732 5.772C63.9492 5.676 64.1692 5.628 64.4332 5.628H67.4572L63.9052 10.14C63.6252 10.516 63.3012 10.812 62.9332 11.028C63.1172 11.156 63.2772 11.304 63.4132 11.472C63.5492 11.64 63.6812 11.828 63.8092 12.036L67.6372 18H64.6612C64.4052 18 64.1852 17.96 64.0012 17.88C63.8172 17.792 63.6652 17.64 63.5452 17.424L60.7612 12.876C60.6492 12.684 60.5332 12.56 60.4132 12.504C60.2932 12.448 60.1132 12.42 59.8732 12.42H59.1772V18H55.8652V0.107999H59.1772Z" fill="white"/>
</svg>
