<svg width="81" height="22" viewBox="0 0 81 22" fill="none" xmlns="http://www.w3.org/2000/svg">
<path d="M6.484 10.304C7.16533 10.304 7.75333 10.22 8.248 10.052C8.74267 9.87467 9.14867 9.63667 9.466 9.338C9.78333 9.03 10.0167 8.67067 10.166 8.26C10.3153 7.84933 10.39 7.40133 10.39 6.916C10.39 5.95467 10.068 5.208 9.424 4.676C8.78933 4.144 7.81867 3.878 6.512 3.878H4.328V10.304H6.484ZM16.326 21H12.532C11.8227 21 11.3093 20.7293 10.992 20.188L7.128 13.958C6.96933 13.7153 6.792 13.538 6.596 13.426C6.40933 13.314 6.12933 13.258 5.756 13.258H4.328V21H0.128V0.685999H6.512C7.93067 0.685999 9.144 0.835332 10.152 1.134C11.16 1.42333 11.986 1.82933 12.63 2.352C13.274 2.87467 13.7453 3.5 14.044 4.228C14.3427 4.94667 14.492 5.74 14.492 6.608C14.492 7.28 14.394 7.91933 14.198 8.526C14.0113 9.12333 13.736 9.66933 13.372 10.164C13.008 10.6587 12.56 11.0973 12.028 11.48C11.496 11.8627 10.8893 12.1707 10.208 12.404C10.4787 12.5533 10.7307 12.7353 10.964 12.95C11.1973 13.1553 11.4073 13.4027 11.594 13.692L16.326 21ZM26.4795 14.966C25.5368 15.0127 24.7528 15.0967 24.1275 15.218C23.5022 15.33 23.0028 15.4793 22.6295 15.666C22.2655 15.8527 22.0042 16.0673 21.8455 16.31C21.6962 16.5433 21.6215 16.8 21.6215 17.08C21.6215 17.64 21.7755 18.0367 22.0835 18.27C22.4008 18.5033 22.8395 18.62 23.3995 18.62C24.0435 18.62 24.5988 18.508 25.0655 18.284C25.5415 18.0507 26.0128 17.6913 26.4795 17.206V14.966ZM18.6115 8.568C19.4608 7.80267 20.3988 7.23333 21.4255 6.86C22.4522 6.47733 23.5628 6.286 24.7575 6.286C25.6162 6.286 26.3815 6.426 27.0535 6.706C27.7348 6.986 28.3088 7.378 28.7755 7.882C29.2515 8.37667 29.6155 8.96933 29.8675 9.66C30.1195 10.3507 30.2455 11.1067 30.2455 11.928V21H28.4815C28.1175 21 27.8375 20.9487 27.6415 20.846C27.4548 20.7433 27.3008 20.5287 27.1795 20.202L26.8715 19.278C26.5075 19.5953 26.1528 19.8753 25.8075 20.118C25.4715 20.3607 25.1215 20.566 24.7575 20.734C24.3935 20.8927 24.0015 21.014 23.5815 21.098C23.1708 21.182 22.7088 21.224 22.1955 21.224C21.5608 21.224 20.9822 21.14 20.4595 20.972C19.9368 20.804 19.4842 20.5567 19.1015 20.23C18.7282 19.894 18.4388 19.4787 18.2335 18.984C18.0282 18.4893 17.9255 17.92 17.9255 17.276C17.9255 16.744 18.0608 16.212 18.3315 15.68C18.6022 15.148 19.0642 14.6673 19.7175 14.238C20.3802 13.7993 21.2575 13.44 22.3495 13.16C23.4508 12.8707 24.8275 12.7073 26.4795 12.67V11.928C26.4795 11.0227 26.2882 10.36 25.9055 9.94C25.5228 9.51067 24.9722 9.296 24.2535 9.296C23.7215 9.296 23.2782 9.36133 22.9235 9.492C22.5688 9.61333 22.2562 9.74867 21.9855 9.898C21.7242 10.038 21.4768 10.1733 21.2435 10.304C21.0102 10.4253 20.7395 10.486 20.4315 10.486C20.1608 10.486 19.9322 10.4207 19.7455 10.29C19.5682 10.15 19.4188 9.98667 19.2975 9.8L18.6115 8.568ZM47.5922 6.566L41.9222 21H38.4222L32.7522 6.566H35.9582C36.2382 6.566 36.4715 6.63133 36.6582 6.762C36.8448 6.89267 36.9755 7.06067 37.0502 7.266L39.4722 14.406C39.6308 14.8913 39.7708 15.3673 39.8922 15.834C40.0135 16.2913 40.1208 16.7533 40.2142 17.22C40.3168 16.7533 40.4288 16.2913 40.5502 15.834C40.6808 15.3673 40.8302 14.8913 40.9982 14.406L43.5042 7.266C43.5695 7.06067 43.6955 6.89267 43.8822 6.762C44.0688 6.63133 44.2882 6.566 44.5402 6.566H47.5922ZM59.327 12.082C59.327 11.6807 59.271 11.298 59.159 10.934C59.0563 10.57 58.8883 10.248 58.655 9.968C58.4217 9.688 58.1277 9.46867 57.773 9.31C57.4183 9.142 56.9937 9.058 56.499 9.058C55.575 9.058 54.8517 9.31933 54.329 9.842C53.8063 10.3647 53.4657 11.1113 53.307 12.082H59.327ZM53.251 14.378C53.3723 15.7313 53.755 16.7207 54.399 17.346C55.0523 17.9713 55.9017 18.284 56.947 18.284C57.479 18.284 57.9363 18.2233 58.319 18.102C58.711 17.9713 59.0517 17.8313 59.341 17.682C59.6397 17.5233 59.9057 17.3833 60.139 17.262C60.3817 17.1313 60.6197 17.066 60.853 17.066C61.1517 17.066 61.385 17.178 61.553 17.402L62.673 18.802C62.2623 19.278 61.8097 19.6747 61.315 19.992C60.8203 20.3 60.307 20.5473 59.775 20.734C59.243 20.9113 58.7063 21.0327 58.165 21.098C57.6237 21.1727 57.101 21.21 56.597 21.21C55.589 21.21 54.6463 21.0467 53.769 20.72C52.901 20.384 52.1403 19.894 51.487 19.25C50.843 18.5967 50.3343 17.7893 49.961 16.828C49.5877 15.8667 49.401 14.7513 49.401 13.482C49.401 12.502 49.5597 11.578 49.877 10.71C50.2037 9.842 50.6703 9.086 51.277 8.442C51.8837 7.798 52.621 7.28933 53.489 6.916C54.357 6.53333 55.337 6.342 56.429 6.342C57.353 6.342 58.2023 6.49133 58.977 6.79C59.761 7.07933 60.433 7.504 60.993 8.064C61.5623 8.624 62.001 9.31467 62.309 10.136C62.6263 10.948 62.785 11.8767 62.785 12.922C62.785 13.2113 62.771 13.4493 62.743 13.636C62.715 13.8227 62.6683 13.972 62.603 14.084C62.5377 14.196 62.449 14.2753 62.337 14.322C62.225 14.3593 62.0803 14.378 61.903 14.378H53.251ZM70.4467 0.125999V11.97H71.0907C71.3334 11.97 71.5247 11.9373 71.6647 11.872C71.8047 11.7973 71.9447 11.6667 72.0847 11.48L75.2767 7.224C75.4354 7.00933 75.6127 6.846 75.8087 6.734C76.0141 6.622 76.2707 6.566 76.5787 6.566H80.1067L75.9627 11.83C75.6361 12.2687 75.2581 12.614 74.8287 12.866C75.0434 13.0153 75.2301 13.188 75.3887 13.384C75.5474 13.58 75.7014 13.7993 75.8507 14.042L80.3167 21H76.8447C76.5461 21 76.2894 20.9533 76.0747 20.86C75.8601 20.7573 75.6827 20.58 75.5427 20.328L72.2947 15.022C72.1641 14.798 72.0287 14.6533 71.8887 14.588C71.7487 14.5227 71.5387 14.49 71.2587 14.49H70.4467V21H66.5827V0.125999H70.4467Z" fill="#64629D"/>
</svg>
